%
M48
M72
T01C0.0320
T02C0.0440
T03C0.0400
T04C0.0520
T05C0.1250
T06C0.0220
T07C0.0280
%
T01
X924Y287
X924Y387
X1124Y437
X1274Y437
X1274Y537
X1274Y637
X1274Y737
X1274Y837
X1124Y837
X1274Y937
X1174Y987
X1274Y1037
X1574Y1037
X1674Y987
X1574Y937
X1574Y837
X1724Y837
X1574Y737
X1574Y637
X1574Y537
X1574Y437
X1724Y437
X1574Y337
X1274Y337
X1924Y387
X1924Y287
X2174Y887
X2124Y987
X2174Y1137
X2274Y1137
X2224Y1212
X2424Y1187
X2499Y1137
X2424Y1087
X2524Y987
X2574Y887
X2624Y1237
X2624Y1437
X1674Y1387
X1174Y1387
X774Y1337
X574Y1337
X424Y1187
X349Y1137
X424Y1087
X374Y987
X324Y887
X724Y887
X774Y987
T02
X924Y887
X1024Y887
X1024Y1287
X924Y1287
X1824Y1287
X1924Y1287
X2074Y1337
X2474Y1337
X1924Y887
X1824Y887
T03
X1924Y737
X2124Y737
X2124Y537
X1924Y537
X2624Y1037
X2624Y1137
X1424Y1187
X1424Y1387
X924Y737
X724Y737
X724Y537
X924Y537
X224Y1037
X224Y1137
X274Y1287
X274Y1387
T04
X1074Y1387
X374Y736
X374Y539
X1149Y337
X1699Y337
X2474Y538
X2474Y735
T05
X599Y312
X2249Y312
T06
X1824Y637
X1774Y687
X1724Y737
X1674Y687
X1724Y637
X1174Y687
X1124Y737
X1074Y687
X1124Y637
X1024Y637
T07
X1449Y812
X1499Y1262
M30
