G75*
G70*
%OFA0B0*%
%FSLAX24Y24*%
%IPPOS*%
%LPD*%
%AMOC8*
5,1,8,0,0,1.08239X$1,22.5*
%
%ADD10C,0.0060*%
%ADD11C,0.0160*%
%ADD12O,0.1120X0.0600*%
%ADD13C,0.0740*%
%ADD14O,0.0780X0.1480*%
%ADD15C,0.1080*%
%ADD16OC8,0.1080*%
%ADD17OC8,0.0680*%
%ADD18OC8,0.0600*%
%ADD19O,0.1280X0.0680*%
%ADD20O,0.1640X0.0860*%
%ADD21OC8,0.0930*%
%ADD22C,0.1730*%
%ADD23C,0.0460*%
%ADD24C,0.0520*%
D10*
X003272Y015685D02*
X003379Y015685D01*
X003486Y015792D01*
X003486Y016326D01*
X003703Y016219D02*
X003810Y016326D01*
X004024Y016326D01*
X004130Y016219D01*
X004130Y016112D01*
X003703Y016112D01*
X003703Y016005D02*
X003703Y016219D01*
X003703Y016005D02*
X003810Y015899D01*
X004024Y015899D01*
X004348Y015899D02*
X004348Y016326D01*
X004561Y016326D02*
X004668Y016326D01*
X004561Y016326D02*
X004348Y016112D01*
X004885Y016219D02*
X004885Y016326D01*
X004992Y016326D01*
X004992Y016219D01*
X004885Y016219D01*
X004885Y016005D02*
X004885Y015899D01*
X004992Y015899D01*
X004992Y016005D01*
X004885Y016005D01*
X003486Y015899D02*
X003165Y015899D01*
X003059Y016005D01*
X003059Y016326D01*
X002841Y016219D02*
X002841Y015899D01*
X002521Y015899D01*
X002414Y016005D01*
X002521Y016112D01*
X002841Y016112D01*
X002841Y016219D02*
X002734Y016326D01*
X002521Y016326D01*
X002197Y015899D02*
X001770Y015899D01*
X001770Y016539D01*
X001770Y016899D02*
X001770Y017326D01*
X001983Y017539D01*
X002197Y017326D01*
X002197Y016899D01*
X002414Y017005D02*
X002521Y016899D01*
X002841Y016899D01*
X002841Y017326D01*
X003059Y017326D02*
X003272Y017326D01*
X003165Y017432D02*
X003165Y017005D01*
X003272Y016899D01*
X003488Y017005D02*
X003488Y017219D01*
X003595Y017326D01*
X003809Y017326D01*
X003915Y017219D01*
X003915Y017112D01*
X003488Y017112D01*
X003488Y017005D02*
X003595Y016899D01*
X003809Y016899D01*
X004133Y017005D02*
X004240Y016899D01*
X004560Y016899D01*
X004560Y017326D01*
X004777Y017326D02*
X004777Y016899D01*
X004777Y017112D02*
X004991Y017326D01*
X005098Y017326D01*
X005315Y017326D02*
X005315Y017219D01*
X005421Y017219D01*
X005421Y017326D01*
X005315Y017326D01*
X005315Y017005D02*
X005315Y016899D01*
X005421Y016899D01*
X005421Y017005D01*
X005315Y017005D01*
X006281Y016899D02*
X006281Y017539D01*
X006495Y017326D01*
X006708Y017539D01*
X006708Y016899D01*
X006926Y017005D02*
X007033Y017112D01*
X007353Y017112D01*
X007353Y017219D02*
X007353Y016899D01*
X007033Y016899D01*
X006926Y017005D01*
X007677Y017005D02*
X007784Y016899D01*
X007677Y017005D02*
X007677Y017432D01*
X007570Y017326D02*
X007784Y017326D01*
X008000Y017326D02*
X008214Y017326D01*
X008107Y017432D02*
X008107Y017005D01*
X008214Y016899D01*
X008430Y016899D02*
X008430Y017539D01*
X008536Y017326D02*
X008750Y017326D01*
X008857Y017219D01*
X008857Y016899D01*
X009074Y017005D02*
X009074Y017219D01*
X009181Y017326D01*
X009395Y017326D01*
X009501Y017219D01*
X009501Y017112D01*
X009074Y017112D01*
X009074Y017005D02*
X009181Y016899D01*
X009395Y016899D01*
X009719Y017005D02*
X009826Y016899D01*
X009932Y017005D01*
X010039Y016899D01*
X010146Y017005D01*
X010146Y017326D01*
X009719Y017326D02*
X009719Y017005D01*
X011008Y016899D02*
X011008Y017539D01*
X011115Y017219D02*
X011435Y016899D01*
X011652Y016899D02*
X011652Y017539D01*
X011435Y017539D02*
X011008Y017112D01*
X011652Y017219D02*
X011759Y017326D01*
X011973Y017326D01*
X012079Y017219D01*
X012079Y016899D01*
X012297Y017005D02*
X012404Y016899D01*
X012617Y016899D01*
X012724Y017005D01*
X012724Y017219D01*
X012617Y017326D01*
X012404Y017326D01*
X012297Y017219D01*
X012297Y017005D01*
X012941Y017005D02*
X012941Y017326D01*
X013177Y017219D02*
X013177Y016899D01*
X013048Y016899D02*
X013368Y016899D01*
X013368Y017326D01*
X013284Y017326D02*
X013177Y017219D01*
X013284Y017326D02*
X013391Y017219D01*
X013391Y016899D01*
X013586Y016899D02*
X014013Y016899D01*
X014142Y016899D02*
X014249Y017005D01*
X014142Y017112D01*
X013822Y017112D01*
X013822Y017219D02*
X013822Y016899D01*
X014142Y016899D01*
X014231Y017005D02*
X014337Y017112D01*
X014658Y017112D01*
X014658Y017219D02*
X014658Y016899D01*
X014337Y016899D01*
X014231Y017005D01*
X014466Y016899D02*
X014893Y016899D01*
X014466Y017326D01*
X014893Y017326D01*
X014875Y017326D02*
X014982Y017326D01*
X015089Y017219D01*
X015195Y017326D01*
X015302Y017219D01*
X015302Y016899D01*
X015431Y016899D02*
X015111Y016899D01*
X015111Y017326D01*
X015089Y017219D02*
X015089Y016899D01*
X014875Y016899D02*
X014875Y017326D01*
X014658Y017219D02*
X014551Y017326D01*
X014337Y017326D01*
X014142Y017326D02*
X013929Y017326D01*
X013822Y017219D01*
X014013Y017326D02*
X013586Y017326D01*
X013604Y017326D02*
X013498Y017326D01*
X013391Y017219D01*
X013604Y017326D02*
X013604Y016899D01*
X013586Y016899D02*
X014013Y017326D01*
X013048Y016899D02*
X012941Y017005D01*
X013069Y016326D02*
X012963Y016219D01*
X012963Y015899D01*
X013176Y015899D02*
X013176Y016219D01*
X013069Y016326D01*
X013176Y016219D02*
X013283Y016326D01*
X013390Y016326D01*
X013390Y015899D01*
X013607Y016005D02*
X013607Y016219D01*
X013714Y016326D01*
X013927Y016326D01*
X014034Y016219D01*
X014034Y016005D01*
X013927Y015899D01*
X013714Y015899D01*
X013607Y016005D01*
X014250Y015899D02*
X014357Y016005D01*
X014357Y016432D01*
X014464Y016326D02*
X014250Y016326D01*
X014680Y016326D02*
X014893Y016326D01*
X014787Y016432D02*
X014787Y016005D01*
X014680Y015899D01*
X015111Y016005D02*
X015111Y016219D01*
X015218Y016326D01*
X015431Y016326D01*
X015538Y016219D01*
X015538Y016005D01*
X015431Y015899D01*
X015218Y015899D01*
X015111Y016005D01*
X015755Y016005D02*
X015862Y015899D01*
X016182Y015899D01*
X016182Y016539D01*
X015862Y016539D01*
X015755Y016432D01*
X015755Y016326D01*
X015862Y016219D01*
X016182Y016219D01*
X015862Y016219D02*
X015755Y016112D01*
X015755Y016005D01*
X017045Y015899D02*
X017045Y016219D01*
X017151Y016326D01*
X017472Y016326D01*
X017472Y015899D01*
X017689Y016112D02*
X018116Y016112D01*
X018116Y016219D02*
X018009Y016326D01*
X017796Y016326D01*
X017689Y016219D01*
X017689Y016112D01*
X017796Y015899D02*
X018009Y015899D01*
X018116Y016005D01*
X018116Y016219D01*
X018334Y016219D02*
X018334Y016112D01*
X018761Y016112D01*
X018761Y016219D02*
X018654Y016326D01*
X018440Y016326D01*
X018334Y016219D01*
X018440Y015899D02*
X018654Y015899D01*
X018761Y016005D01*
X018761Y016219D01*
X018977Y016326D02*
X019084Y016326D01*
X019298Y016112D01*
X019298Y015899D02*
X019298Y016326D01*
X019515Y016326D02*
X019835Y016326D01*
X019942Y016219D01*
X019942Y016005D01*
X019835Y015899D01*
X019515Y015899D01*
X020160Y016005D02*
X020160Y016112D01*
X020266Y016219D01*
X020480Y016219D01*
X020587Y016326D01*
X020587Y016432D01*
X020480Y016539D01*
X020266Y016539D01*
X020160Y016432D01*
X020266Y016899D02*
X020373Y017005D01*
X020373Y017432D01*
X020479Y017326D02*
X020266Y017326D01*
X020050Y017219D02*
X019943Y017326D01*
X019729Y017326D01*
X019623Y017219D01*
X019623Y016899D01*
X019405Y017005D02*
X019405Y017219D01*
X019298Y017326D01*
X019085Y017326D01*
X018978Y017219D01*
X018978Y017112D01*
X019405Y017112D01*
X019405Y017005D02*
X019298Y016899D01*
X019085Y016899D01*
X018761Y017005D02*
X018654Y016899D01*
X018547Y017005D01*
X018440Y016899D01*
X018334Y017005D01*
X018334Y017326D01*
X018761Y017326D02*
X018761Y017005D01*
X020050Y016899D02*
X020050Y017539D01*
X020695Y017326D02*
X020909Y017326D01*
X020802Y017432D02*
X020802Y017005D01*
X020695Y016899D01*
X021126Y016899D02*
X021447Y016899D01*
X021554Y017005D01*
X021447Y017112D01*
X021126Y017112D01*
X021126Y017219D02*
X021126Y016899D01*
X021126Y017219D02*
X021233Y017326D01*
X021447Y017326D01*
X021771Y017539D02*
X021771Y016899D01*
X021876Y016646D02*
X021876Y016539D01*
X021876Y016326D02*
X021876Y015899D01*
X021770Y015899D02*
X021983Y015899D01*
X022201Y016005D02*
X022201Y016112D01*
X022307Y016219D01*
X022521Y016219D01*
X022628Y016326D01*
X022628Y016432D01*
X022521Y016539D01*
X022307Y016539D01*
X022201Y016432D01*
X021983Y016326D02*
X021876Y016326D01*
X021554Y016539D02*
X021447Y016539D01*
X021447Y015899D01*
X021554Y015899D02*
X021340Y015899D01*
X021124Y015899D02*
X021124Y016539D01*
X020804Y016326D02*
X021124Y016112D01*
X020804Y015899D01*
X020587Y016005D02*
X020480Y015899D01*
X020266Y015899D01*
X020160Y016005D01*
X022201Y016005D02*
X022307Y015899D01*
X022521Y015899D01*
X022628Y016005D01*
X023488Y016005D02*
X023488Y015899D01*
X023594Y015899D01*
X023594Y016005D01*
X023488Y016005D01*
X023488Y016219D02*
X023594Y016219D01*
X023594Y016326D01*
X023488Y016326D01*
X023488Y016219D01*
X023811Y016326D02*
X023918Y016326D01*
X024132Y016112D01*
X024132Y015899D02*
X024132Y016326D01*
X024349Y016219D02*
X024349Y016112D01*
X024776Y016112D01*
X024776Y016219D02*
X024669Y016326D01*
X024456Y016326D01*
X024349Y016219D01*
X024456Y015899D02*
X024669Y015899D01*
X024776Y016005D01*
X024776Y016219D01*
X024994Y016326D02*
X024994Y015792D01*
X025100Y015685D01*
X025207Y015685D01*
X025314Y015899D02*
X024994Y015899D01*
X025314Y015899D02*
X025421Y016005D01*
X025421Y016326D01*
X025638Y016219D02*
X025745Y016326D01*
X025958Y016326D01*
X025958Y016112D02*
X025638Y016112D01*
X025638Y016219D02*
X025638Y015899D01*
X025958Y015899D01*
X026065Y016005D01*
X025958Y016112D01*
X026283Y015899D02*
X026710Y015899D01*
X026710Y016539D01*
X026710Y016899D02*
X026710Y017326D01*
X026496Y017539D01*
X026283Y017326D01*
X026283Y016899D01*
X026065Y017005D02*
X025958Y016899D01*
X025638Y016899D01*
X025638Y017326D01*
X025421Y017326D02*
X025207Y017326D01*
X025314Y017432D02*
X025314Y017005D01*
X025207Y016899D01*
X024991Y017005D02*
X024991Y017219D01*
X024884Y017326D01*
X024671Y017326D01*
X024564Y017219D01*
X024564Y017112D01*
X024991Y017112D01*
X024991Y017005D02*
X024884Y016899D01*
X024671Y016899D01*
X024346Y017005D02*
X024240Y016899D01*
X023919Y016899D01*
X023919Y017326D01*
X023702Y017326D02*
X023702Y016899D01*
X023702Y017112D02*
X023488Y017326D01*
X023382Y017326D01*
X023165Y017326D02*
X023165Y017219D01*
X023058Y017219D01*
X023058Y017326D01*
X023165Y017326D01*
X023165Y017005D02*
X023165Y016899D01*
X023058Y016899D01*
X023058Y017005D01*
X023165Y017005D01*
X022198Y016899D02*
X022198Y017539D01*
X021985Y017326D01*
X021771Y017539D01*
X021662Y017899D02*
X021769Y018005D01*
X021769Y018432D01*
X021876Y018326D02*
X021662Y018326D01*
X022093Y018219D02*
X022093Y017899D01*
X022520Y017899D02*
X022520Y018326D01*
X022200Y018326D01*
X022093Y018219D01*
X022738Y018219D02*
X022738Y018005D01*
X022845Y017899D01*
X023058Y017899D01*
X023165Y018005D01*
X023165Y018219D01*
X023058Y018326D01*
X022845Y018326D01*
X022738Y018219D01*
X023382Y018219D02*
X023489Y018112D01*
X023809Y018112D01*
X023809Y017899D02*
X023809Y018539D01*
X023489Y018539D01*
X023382Y018432D01*
X023382Y018219D01*
X024669Y018219D02*
X024776Y018219D01*
X024776Y018326D01*
X024669Y018326D01*
X024669Y018219D01*
X024669Y018005D02*
X024669Y017899D01*
X024776Y017899D01*
X024776Y018005D01*
X024669Y018005D01*
X024994Y017899D02*
X024994Y018219D01*
X025100Y018326D01*
X025207Y018219D01*
X025207Y017899D01*
X025421Y017899D02*
X025421Y018326D01*
X025314Y018326D01*
X025207Y018219D01*
X025638Y018219D02*
X025638Y018005D01*
X025745Y017899D01*
X025958Y017899D01*
X026065Y018005D01*
X026065Y018219D01*
X025958Y018326D01*
X025745Y018326D01*
X025638Y018219D01*
X026283Y017899D02*
X026283Y018539D01*
X026710Y018539D02*
X026283Y017899D01*
X026710Y017899D02*
X026710Y018539D01*
X026710Y017219D02*
X026283Y017219D01*
X026065Y017326D02*
X026065Y017005D01*
X024346Y017005D02*
X024346Y017326D01*
X020802Y018005D02*
X020802Y018219D01*
X020695Y018326D01*
X020481Y018326D01*
X020375Y018219D01*
X020375Y018112D01*
X020802Y018112D01*
X020802Y018005D02*
X020695Y017899D01*
X020481Y017899D01*
X020157Y017899D02*
X020157Y018326D01*
X019837Y018326D01*
X019730Y018219D01*
X019730Y017899D01*
X018868Y017899D02*
X018868Y018539D01*
X018868Y018219D02*
X018441Y018219D01*
X018441Y018539D02*
X018441Y017899D01*
X017471Y017539D02*
X017471Y016899D01*
X017471Y017112D02*
X017044Y017539D01*
X016827Y017539D02*
X016827Y016899D01*
X017044Y016899D02*
X017365Y017219D01*
X016827Y017219D02*
X016720Y017326D01*
X016507Y017326D01*
X016400Y017219D01*
X016400Y016899D01*
X016182Y017005D02*
X016076Y016899D01*
X015862Y016899D01*
X015755Y017005D01*
X015755Y017219D01*
X015862Y017326D01*
X016076Y017326D01*
X016182Y017219D01*
X016182Y017005D01*
X015538Y017005D02*
X015538Y017326D01*
X015538Y017005D02*
X015431Y016899D01*
X010038Y017899D02*
X010038Y018539D01*
X010038Y018219D02*
X009611Y018219D01*
X009611Y017899D02*
X009611Y018539D01*
X008749Y018219D02*
X008749Y017899D01*
X008322Y017899D02*
X008322Y018326D01*
X008643Y018326D01*
X008749Y018219D01*
X008105Y018219D02*
X008105Y018112D01*
X007678Y018112D01*
X007678Y018005D02*
X007678Y018219D01*
X007785Y018326D01*
X007998Y018326D01*
X008105Y018219D01*
X007785Y017899D02*
X007678Y018005D01*
X007785Y017899D02*
X007998Y017899D01*
X008536Y017326D02*
X008430Y017219D01*
X007353Y017219D02*
X007246Y017326D01*
X007033Y017326D01*
X006817Y017899D02*
X006710Y018005D01*
X006710Y018432D01*
X006604Y018326D02*
X006817Y018326D01*
X006386Y018219D02*
X006386Y017899D01*
X005959Y017899D02*
X005959Y018326D01*
X006279Y018326D01*
X006386Y018219D01*
X005742Y018219D02*
X005742Y018005D01*
X005635Y017899D01*
X005421Y017899D01*
X005315Y018005D01*
X005315Y018219D01*
X005421Y018326D01*
X005635Y018326D01*
X005742Y018219D01*
X005097Y018219D02*
X005097Y018432D01*
X004990Y018539D01*
X004670Y018539D01*
X004670Y017899D01*
X004670Y018112D02*
X004990Y018112D01*
X005097Y018219D01*
X003810Y018219D02*
X003703Y018219D01*
X003703Y018326D01*
X003810Y018326D01*
X003810Y018219D01*
X003810Y018005D02*
X003810Y017899D01*
X003703Y017899D01*
X003703Y018005D01*
X003810Y018005D01*
X003486Y017899D02*
X003486Y018219D01*
X003379Y018326D01*
X003272Y018219D01*
X003272Y017899D01*
X003059Y017899D02*
X003059Y018326D01*
X003165Y018326D01*
X003272Y018219D01*
X002841Y018219D02*
X002841Y018005D01*
X002734Y017899D01*
X002521Y017899D01*
X002414Y018005D01*
X002414Y018219D01*
X002521Y018326D01*
X002734Y018326D01*
X002841Y018219D01*
X002197Y017899D02*
X002197Y018539D01*
X001770Y018539D02*
X002197Y017899D01*
X001770Y017899D02*
X001770Y018539D01*
X001770Y017219D02*
X002197Y017219D01*
X002414Y017326D02*
X002414Y017005D01*
X004133Y017005D02*
X004133Y017326D01*
D11*
X001240Y015869D02*
X001240Y019369D01*
X005240Y019369D01*
D12*
X012740Y010369D03*
X012740Y009369D03*
X012740Y008369D03*
X012740Y007369D03*
X012740Y006369D03*
X012740Y005369D03*
X012740Y004369D03*
X012740Y003369D03*
X015740Y003369D03*
X015740Y004369D03*
X015740Y005369D03*
X015740Y006369D03*
X015740Y007369D03*
X015740Y008369D03*
X015740Y009369D03*
X015740Y010369D03*
D13*
X018240Y008869D03*
X019240Y008869D03*
X010240Y008869D03*
X009240Y008869D03*
X009240Y012869D03*
X010240Y012869D03*
X018240Y012869D03*
X019240Y012869D03*
X020740Y013369D03*
X024740Y013369D03*
D14*
X007740Y013369D03*
X005740Y013369D03*
D15*
X014240Y013869D03*
D16*
X014240Y011869D03*
D17*
X019240Y007369D03*
X021240Y007369D03*
X021240Y005369D03*
X019240Y005369D03*
X009240Y005369D03*
X007240Y005369D03*
X007240Y007369D03*
X009240Y007369D03*
D18*
X011240Y008369D03*
X011740Y009869D03*
X007740Y009869D03*
X007240Y008869D03*
X003740Y009869D03*
X004240Y010869D03*
X003490Y011369D03*
X004240Y011869D03*
X003240Y008869D03*
X011240Y004369D03*
X009240Y003869D03*
X009240Y002869D03*
X017240Y004369D03*
X019240Y003869D03*
X019240Y002869D03*
X017240Y008369D03*
X016740Y009869D03*
X021240Y009869D03*
X021740Y008869D03*
X025240Y009869D03*
X025740Y008869D03*
X024240Y010869D03*
X024990Y011369D03*
X024240Y011869D03*
X022740Y011369D03*
X021740Y011369D03*
X022240Y012119D03*
X026240Y012369D03*
X026240Y014369D03*
X016740Y013869D03*
X011740Y013869D03*
D19*
X002740Y013869D03*
X002740Y012869D03*
X002240Y011369D03*
X002240Y010369D03*
X026240Y010369D03*
X026240Y011369D03*
D20*
X024740Y007349D03*
X024740Y005379D03*
X003740Y005389D03*
X003740Y007359D03*
D21*
X011490Y003369D03*
X016990Y003369D03*
X010740Y013869D03*
D22*
X005990Y003119D03*
X022490Y003119D03*
D23*
X018240Y006369D03*
X017240Y006369D03*
X017740Y006869D03*
X017240Y007369D03*
X016740Y006869D03*
X011740Y006869D03*
X011240Y007369D03*
X010740Y006869D03*
X011240Y006369D03*
X010240Y006369D03*
D24*
X014490Y008119D03*
X014990Y012619D03*
M02*
