G75*
G70*
%OFA0B0*%
%FSLAX24Y24*%
%IPPOS*%
%LPD*%
%AMOC8*
5,1,8,0,0,1.08239X$1,22.5*
%
%ADD10C,0.0060*%
%ADD11C,0.0160*%
%ADD12O,0.1040X0.0520*%
%ADD13C,0.0660*%
%ADD14O,0.0700X0.1400*%
%ADD15C,0.1000*%
%ADD16OC8,0.1000*%
%ADD17OC8,0.0600*%
%ADD18OC8,0.0520*%
%ADD19O,0.1200X0.0600*%
%ADD20O,0.1560X0.0780*%
%ADD21OC8,0.0850*%
%ADD22C,0.0500*%
%ADD23C,0.0250*%
%ADD24C,0.1650*%
%ADD25C,0.0380*%
%ADD26C,0.0240*%
%ADD27C,0.0440*%
D10*
X003272Y015685D02*
X003379Y015685D01*
X003486Y015792D01*
X003486Y016326D01*
X003703Y016219D02*
X003810Y016326D01*
X004024Y016326D01*
X004130Y016219D01*
X004130Y016112D01*
X003703Y016112D01*
X003703Y016005D02*
X003703Y016219D01*
X003703Y016005D02*
X003810Y015899D01*
X004024Y015899D01*
X004348Y015899D02*
X004348Y016326D01*
X004561Y016326D02*
X004668Y016326D01*
X004561Y016326D02*
X004348Y016112D01*
X004885Y016219D02*
X004885Y016326D01*
X004992Y016326D01*
X004992Y016219D01*
X004885Y016219D01*
X004885Y016005D02*
X004885Y015899D01*
X004992Y015899D01*
X004992Y016005D01*
X004885Y016005D01*
X005983Y015899D02*
X005983Y016539D01*
X005770Y016539D02*
X006197Y016539D01*
X006414Y016219D02*
X006521Y016326D01*
X006734Y016326D01*
X006841Y016219D01*
X006841Y016005D01*
X006734Y015899D01*
X006521Y015899D01*
X006414Y016005D01*
X006414Y016219D01*
X007059Y016326D02*
X007059Y015685D01*
X007059Y015899D02*
X007379Y015899D01*
X007486Y016005D01*
X007486Y016219D01*
X007379Y016326D01*
X007059Y016326D01*
X007033Y016899D02*
X006926Y017005D01*
X007033Y017112D01*
X007353Y017112D01*
X007353Y017219D02*
X007353Y016899D01*
X007033Y016899D01*
X006708Y016899D02*
X006708Y017539D01*
X006495Y017326D01*
X006281Y017539D01*
X006281Y016899D01*
X005421Y016899D02*
X005315Y016899D01*
X005315Y017005D01*
X005421Y017005D01*
X005421Y016899D01*
X004991Y017326D02*
X004777Y017112D01*
X004777Y016899D02*
X004777Y017326D01*
X004991Y017326D02*
X005098Y017326D01*
X005315Y017326D02*
X005315Y017219D01*
X005421Y017219D01*
X005421Y017326D01*
X005315Y017326D01*
X004560Y017326D02*
X004560Y016899D01*
X004240Y016899D01*
X004133Y017005D01*
X004133Y017326D01*
X003915Y017219D02*
X003915Y017112D01*
X003488Y017112D01*
X003488Y017005D02*
X003488Y017219D01*
X003595Y017326D01*
X003809Y017326D01*
X003915Y017219D01*
X003272Y017326D02*
X003059Y017326D01*
X003165Y017432D02*
X003165Y017005D01*
X003272Y016899D01*
X003488Y017005D02*
X003595Y016899D01*
X003809Y016899D01*
X002841Y016899D02*
X002841Y017326D01*
X002414Y017326D02*
X002414Y017005D01*
X002521Y016899D01*
X002841Y016899D01*
X002197Y016899D02*
X002197Y017326D01*
X001983Y017539D01*
X001770Y017326D01*
X001770Y016899D01*
X001770Y017219D02*
X002197Y017219D01*
X002197Y017899D02*
X002197Y018539D01*
X002414Y018219D02*
X002414Y018005D01*
X002521Y017899D01*
X002734Y017899D01*
X002841Y018005D01*
X002841Y018219D01*
X002734Y018326D01*
X002521Y018326D01*
X002414Y018219D01*
X003059Y018326D02*
X003165Y018326D01*
X003272Y018219D01*
X003379Y018326D01*
X003486Y018219D01*
X003486Y017899D01*
X003272Y017899D02*
X003272Y018219D01*
X003059Y018326D02*
X003059Y017899D01*
X003703Y017899D02*
X003703Y018005D01*
X003810Y018005D01*
X003810Y017899D01*
X003703Y017899D01*
X003703Y018219D02*
X003703Y018326D01*
X003810Y018326D01*
X003810Y018219D01*
X003703Y018219D01*
X004670Y018112D02*
X004990Y018112D01*
X005097Y018219D01*
X005097Y018432D01*
X004990Y018539D01*
X004670Y018539D01*
X004670Y017899D01*
X005315Y018005D02*
X005421Y017899D01*
X005635Y017899D01*
X005742Y018005D01*
X005742Y018219D01*
X005635Y018326D01*
X005421Y018326D01*
X005315Y018219D01*
X005315Y018005D01*
X005959Y017899D02*
X005959Y018326D01*
X006279Y018326D01*
X006386Y018219D01*
X006386Y017899D01*
X006710Y018005D02*
X006817Y017899D01*
X006710Y018005D02*
X006710Y018432D01*
X006604Y018326D02*
X006817Y018326D01*
X007678Y018219D02*
X007678Y018005D01*
X007785Y017899D01*
X007998Y017899D01*
X008105Y018112D02*
X007678Y018112D01*
X007678Y018219D02*
X007785Y018326D01*
X007998Y018326D01*
X008105Y018219D01*
X008105Y018112D01*
X008322Y017899D02*
X008322Y018326D01*
X008643Y018326D01*
X008749Y018219D01*
X008749Y017899D01*
X008430Y017539D02*
X008430Y016899D01*
X008214Y016899D02*
X008107Y017005D01*
X008107Y017432D01*
X008000Y017326D02*
X008214Y017326D01*
X008430Y017219D02*
X008536Y017326D01*
X008750Y017326D01*
X008857Y017219D01*
X008857Y016899D01*
X009074Y017005D02*
X009074Y017219D01*
X009181Y017326D01*
X009395Y017326D01*
X009501Y017219D01*
X009501Y017112D01*
X009074Y017112D01*
X009074Y017005D02*
X009181Y016899D01*
X009395Y016899D01*
X009719Y017005D02*
X009826Y016899D01*
X009932Y017005D01*
X010039Y016899D01*
X010146Y017005D01*
X010146Y017326D01*
X009719Y017326D02*
X009719Y017005D01*
X011008Y016899D02*
X011008Y017539D01*
X011115Y017219D02*
X011435Y016899D01*
X011652Y016899D02*
X011652Y017539D01*
X011435Y017539D02*
X011008Y017112D01*
X011652Y017219D02*
X011759Y017326D01*
X011973Y017326D01*
X012079Y017219D01*
X012079Y016899D01*
X012297Y017005D02*
X012404Y016899D01*
X012617Y016899D01*
X012724Y017005D01*
X012724Y017219D01*
X012617Y017326D01*
X012404Y017326D01*
X012297Y017219D01*
X012297Y017005D01*
X012941Y017005D02*
X012941Y017326D01*
X013368Y017326D02*
X013368Y016899D01*
X013048Y016899D01*
X012941Y017005D01*
X013586Y016899D02*
X014013Y016899D01*
X014231Y017005D02*
X014337Y017112D01*
X014658Y017112D01*
X014658Y017219D02*
X014658Y016899D01*
X014337Y016899D01*
X014231Y017005D01*
X014013Y017326D02*
X013586Y016899D01*
X013586Y017326D02*
X014013Y017326D01*
X014337Y017326D02*
X014551Y017326D01*
X014658Y017219D01*
X014875Y017326D02*
X014982Y017326D01*
X015089Y017219D01*
X015195Y017326D01*
X015302Y017219D01*
X015302Y016899D01*
X015089Y016899D02*
X015089Y017219D01*
X014875Y017326D02*
X014875Y016899D01*
X010038Y017899D02*
X010038Y018539D01*
X010038Y018219D02*
X009611Y018219D01*
X009611Y017899D02*
X009611Y018539D01*
X007677Y017432D02*
X007677Y017005D01*
X007784Y016899D01*
X007784Y017326D02*
X007570Y017326D01*
X007353Y017219D02*
X007246Y017326D01*
X007033Y017326D01*
X003486Y015899D02*
X003165Y015899D01*
X003059Y016005D01*
X003059Y016326D01*
X002841Y016219D02*
X002841Y015899D01*
X002521Y015899D01*
X002414Y016005D01*
X002521Y016112D01*
X002841Y016112D01*
X002841Y016219D02*
X002734Y016326D01*
X002521Y016326D01*
X002197Y015899D02*
X001770Y015899D01*
X001770Y016539D01*
X001770Y017899D02*
X001770Y018539D01*
X002197Y017899D01*
D11*
X001535Y010010D02*
X001535Y002600D01*
X008801Y002600D01*
X008740Y002661D01*
X008740Y003076D01*
X009033Y003368D01*
X009447Y003368D01*
X009740Y003076D01*
X009740Y002661D01*
X009679Y002600D01*
X018801Y002600D01*
X018740Y002661D01*
X018740Y003076D01*
X019033Y003368D01*
X019447Y003368D01*
X019740Y003076D01*
X019740Y002661D01*
X019679Y002600D01*
X026945Y002600D01*
X026945Y010010D01*
X026763Y009829D01*
X026605Y009829D01*
X026605Y008770D01*
X026605Y008467D01*
X026355Y008217D01*
X026141Y008004D01*
X022589Y008004D01*
X022375Y008217D01*
X022089Y008504D01*
X022082Y008504D01*
X021947Y008369D01*
X021756Y008369D01*
X021296Y007908D01*
X021463Y007908D01*
X021780Y007592D01*
X021780Y007145D01*
X021463Y006829D01*
X021016Y006829D01*
X020700Y007145D01*
X020700Y007312D01*
X019296Y005908D01*
X019463Y005908D01*
X019780Y005592D01*
X019780Y005145D01*
X019463Y004829D01*
X019016Y004829D01*
X018700Y005145D01*
X018700Y005312D01*
X017891Y004504D01*
X017740Y004504D01*
X017740Y004161D01*
X017447Y003869D01*
X017345Y003869D01*
X017595Y003619D01*
X017595Y003419D01*
X017040Y003419D01*
X017040Y003318D01*
X017040Y002764D01*
X017240Y002764D01*
X017595Y003118D01*
X017595Y003318D01*
X017040Y003318D01*
X016940Y003318D01*
X016940Y002764D01*
X016739Y002764D01*
X016420Y003082D01*
X016207Y002869D01*
X015273Y002869D01*
X015133Y003009D01*
X015091Y003009D01*
X014341Y003759D01*
X014130Y003969D01*
X014130Y007828D01*
X014100Y007858D01*
X014030Y008027D01*
X014030Y008210D01*
X014100Y008379D01*
X014229Y008508D01*
X014229Y008509D01*
X013850Y008509D01*
X013850Y003469D01*
X013639Y003259D01*
X013389Y003009D01*
X013347Y003009D01*
X013207Y002869D01*
X012273Y002869D01*
X012133Y003009D01*
X012070Y003009D01*
X011765Y002704D01*
X011214Y002704D01*
X010825Y003093D01*
X010825Y003644D01*
X011049Y003869D01*
X011033Y003869D01*
X010740Y004161D01*
X010740Y004504D01*
X010589Y004504D01*
X009780Y005312D01*
X009780Y005145D01*
X009463Y004829D01*
X009016Y004829D01*
X008700Y005145D01*
X008700Y005592D01*
X008861Y005754D01*
X008839Y005754D01*
X008625Y005967D01*
X007875Y006717D01*
X007875Y007020D01*
X007875Y007717D01*
X007224Y008369D01*
X007033Y008369D01*
X006740Y008661D01*
X006740Y009076D01*
X007033Y009368D01*
X007375Y009368D01*
X007375Y009520D01*
X007375Y009526D01*
X007240Y009661D01*
X007240Y010004D01*
X005391Y010004D01*
X004891Y009504D01*
X004589Y009504D01*
X004082Y009504D01*
X003947Y009369D01*
X003605Y009369D01*
X003605Y009211D01*
X003740Y009076D01*
X003740Y008661D01*
X003447Y008369D01*
X003033Y008369D01*
X002740Y008661D01*
X002740Y009076D01*
X002875Y009211D01*
X002875Y009940D01*
X002763Y009829D01*
X001716Y009829D01*
X001535Y010010D01*
X001535Y009979D02*
X001566Y009979D01*
X001535Y009820D02*
X002875Y009820D01*
X002875Y009661D02*
X001535Y009661D01*
X001535Y009503D02*
X002875Y009503D01*
X002875Y009344D02*
X001535Y009344D01*
X001535Y009186D02*
X002850Y009186D01*
X002740Y009027D02*
X001535Y009027D01*
X001535Y008869D02*
X002740Y008869D01*
X002740Y008710D02*
X001535Y008710D01*
X001535Y008552D02*
X002849Y008552D01*
X003008Y008393D02*
X001535Y008393D01*
X001535Y008235D02*
X007357Y008235D01*
X007516Y008076D02*
X001535Y008076D01*
X001535Y007918D02*
X003018Y007918D01*
X003089Y007988D02*
X002720Y007619D01*
X002720Y007098D01*
X003089Y006729D01*
X004391Y006729D01*
X004760Y007098D01*
X004760Y007619D01*
X004391Y007988D01*
X003089Y007988D01*
X002859Y007759D02*
X001535Y007759D01*
X001535Y007600D02*
X002720Y007600D01*
X002720Y007442D02*
X001535Y007442D01*
X001535Y007283D02*
X002720Y007283D01*
X002720Y007125D02*
X001535Y007125D01*
X001535Y006966D02*
X002851Y006966D01*
X003010Y006808D02*
X001535Y006808D01*
X001535Y006649D02*
X007943Y006649D01*
X007875Y006808D02*
X004470Y006808D01*
X004628Y006966D02*
X006878Y006966D01*
X007016Y006829D02*
X006700Y007145D01*
X006700Y007592D01*
X007016Y007908D01*
X007463Y007908D01*
X007780Y007592D01*
X007780Y007145D01*
X007463Y006829D01*
X007016Y006829D01*
X007601Y006966D02*
X007875Y006966D01*
X007875Y007125D02*
X007760Y007125D01*
X007780Y007283D02*
X007875Y007283D01*
X007875Y007442D02*
X007780Y007442D01*
X007771Y007600D02*
X007875Y007600D01*
X007833Y007759D02*
X007613Y007759D01*
X007675Y007918D02*
X004462Y007918D01*
X004620Y007759D02*
X006867Y007759D01*
X006708Y007600D02*
X004760Y007600D01*
X004760Y007442D02*
X006700Y007442D01*
X006700Y007283D02*
X004760Y007283D01*
X004760Y007125D02*
X006720Y007125D01*
X008101Y006491D02*
X001535Y006491D01*
X001535Y006332D02*
X008260Y006332D01*
X008418Y006174D02*
X001535Y006174D01*
X001535Y006015D02*
X003085Y006015D01*
X003089Y006018D02*
X002720Y005649D01*
X002720Y005128D01*
X003089Y004759D01*
X004391Y004759D01*
X004760Y005128D01*
X004760Y005649D01*
X004391Y006018D01*
X003089Y006018D01*
X002927Y005856D02*
X001535Y005856D01*
X001535Y005698D02*
X002768Y005698D01*
X002720Y005539D02*
X001535Y005539D01*
X001535Y005381D02*
X002720Y005381D01*
X002720Y005222D02*
X001535Y005222D01*
X001535Y005064D02*
X002784Y005064D01*
X002942Y004905D02*
X001535Y004905D01*
X001535Y004747D02*
X010345Y004747D01*
X010187Y004905D02*
X009540Y004905D01*
X009699Y005064D02*
X010028Y005064D01*
X009870Y005222D02*
X009780Y005222D01*
X010585Y005539D02*
X011980Y005539D01*
X011980Y005576D02*
X011980Y005233D01*
X010891Y005233D01*
X009641Y006483D01*
X009339Y006483D01*
X009141Y006483D01*
X008605Y007020D01*
X008605Y007987D01*
X008625Y007967D01*
X008839Y007754D01*
X008861Y007754D01*
X008700Y007592D01*
X008700Y007145D01*
X009016Y006829D01*
X009463Y006829D01*
X009780Y007145D01*
X009780Y007592D01*
X009618Y007754D01*
X010089Y007754D01*
X010391Y007754D01*
X010769Y008132D01*
X011033Y007869D01*
X011447Y007869D01*
X011740Y008161D01*
X011740Y008504D01*
X011980Y008504D01*
X011980Y008161D01*
X012273Y007869D01*
X013130Y007869D01*
X013130Y007808D01*
X012740Y007808D01*
X012740Y007369D01*
X012739Y007369D01*
X012739Y007368D01*
X012040Y007368D01*
X012040Y007186D01*
X012297Y006929D01*
X012739Y006929D01*
X012739Y007368D01*
X012740Y007368D01*
X012740Y006929D01*
X013130Y006929D01*
X013130Y006808D01*
X012740Y006808D01*
X012739Y006808D01*
X012297Y006808D01*
X008817Y006808D01*
X008878Y006966D02*
X008658Y006966D01*
X008605Y007125D02*
X008720Y007125D01*
X008700Y007283D02*
X008605Y007283D01*
X008605Y007442D02*
X008700Y007442D01*
X008708Y007600D02*
X008605Y007600D01*
X008605Y007759D02*
X008833Y007759D01*
X008674Y007918D02*
X008605Y007918D01*
X009771Y007600D02*
X012089Y007600D01*
X012040Y007551D02*
X012040Y007369D01*
X012739Y007369D01*
X012739Y007808D01*
X012297Y007808D01*
X012040Y007551D01*
X012040Y007442D02*
X009780Y007442D01*
X009780Y007283D02*
X012040Y007283D01*
X012101Y007125D02*
X009760Y007125D01*
X009601Y006966D02*
X012260Y006966D01*
X012297Y006808D02*
X012040Y006551D01*
X012040Y006369D01*
X012739Y006369D01*
X012739Y006368D01*
X012040Y006368D01*
X012040Y006186D01*
X012297Y005929D01*
X012739Y005929D01*
X012739Y006368D01*
X012740Y006368D01*
X012740Y005929D01*
X013130Y005929D01*
X013130Y005868D01*
X012273Y005868D01*
X011980Y005576D01*
X012102Y005698D02*
X010426Y005698D01*
X010268Y005856D02*
X012261Y005856D01*
X012211Y006015D02*
X010109Y006015D01*
X009951Y006174D02*
X012052Y006174D01*
X012040Y006332D02*
X009792Y006332D01*
X009134Y006491D02*
X012040Y006491D01*
X012138Y006649D02*
X008975Y006649D01*
X008577Y006015D02*
X004394Y006015D01*
X004553Y005856D02*
X006964Y005856D01*
X007016Y005908D02*
X006700Y005592D01*
X006700Y005145D01*
X007016Y004829D01*
X007463Y004829D01*
X007780Y005145D01*
X007780Y005592D01*
X007463Y005908D01*
X007016Y005908D01*
X006805Y005698D02*
X004711Y005698D01*
X004760Y005539D02*
X006700Y005539D01*
X006700Y005381D02*
X004760Y005381D01*
X004760Y005222D02*
X006700Y005222D01*
X006781Y005064D02*
X004696Y005064D01*
X004537Y004905D02*
X006939Y004905D01*
X007540Y004905D02*
X008939Y004905D01*
X008781Y005064D02*
X007699Y005064D01*
X007780Y005222D02*
X008700Y005222D01*
X008700Y005381D02*
X007780Y005381D01*
X007780Y005539D02*
X008700Y005539D01*
X008806Y005698D02*
X007674Y005698D01*
X007515Y005856D02*
X008736Y005856D01*
X010743Y005381D02*
X011980Y005381D01*
X012739Y006015D02*
X012740Y006015D01*
X012739Y006174D02*
X012740Y006174D01*
X012739Y006332D02*
X012740Y006332D01*
X012739Y006369D02*
X012739Y006808D01*
X012740Y006808D02*
X012740Y006369D01*
X012739Y006369D01*
X012739Y006491D02*
X012740Y006491D01*
X012739Y006649D02*
X012740Y006649D01*
X012739Y006966D02*
X012740Y006966D01*
X012739Y007125D02*
X012740Y007125D01*
X012739Y007283D02*
X012740Y007283D01*
X012739Y007442D02*
X012740Y007442D01*
X012739Y007600D02*
X012740Y007600D01*
X012739Y007759D02*
X012740Y007759D01*
X012248Y007759D02*
X010396Y007759D01*
X010555Y007918D02*
X010984Y007918D01*
X010825Y008076D02*
X010713Y008076D01*
X011496Y007918D02*
X012224Y007918D01*
X012065Y008076D02*
X011654Y008076D01*
X011740Y008235D02*
X011980Y008235D01*
X011980Y008393D02*
X011740Y008393D01*
X013500Y009233D02*
X013500Y009576D01*
X013207Y009868D01*
X012273Y009868D01*
X012180Y009776D01*
X012180Y009868D01*
X011740Y009868D01*
X011740Y009869D01*
X011739Y009869D01*
X011739Y009868D01*
X011300Y009868D01*
X011300Y009825D01*
X010605Y010520D01*
X010391Y010733D01*
X005605Y010733D01*
X005605Y011217D01*
X005605Y011520D01*
X005105Y012020D01*
X005076Y012049D01*
X012375Y012049D01*
X012375Y010868D01*
X012273Y010868D01*
X011980Y010576D01*
X011980Y010251D01*
X011922Y010308D01*
X011740Y010308D01*
X011740Y009869D01*
X012180Y009869D01*
X012180Y009961D01*
X012273Y009869D01*
X013207Y009869D01*
X013500Y010161D01*
X013500Y010576D01*
X013207Y010868D01*
X013105Y010868D01*
X013105Y012520D01*
X013105Y013520D01*
X012891Y013733D01*
X012391Y014233D01*
X012089Y014233D01*
X012082Y014233D01*
X011947Y014368D01*
X011533Y014368D01*
X011356Y014192D01*
X011015Y014533D01*
X010464Y014533D01*
X010075Y014144D01*
X010075Y013593D01*
X010229Y013438D01*
X010126Y013438D01*
X009917Y013352D01*
X009756Y013191D01*
X009740Y013151D01*
X009723Y013191D01*
X009563Y013352D01*
X009353Y013438D01*
X009126Y013438D01*
X008917Y013352D01*
X008756Y013191D01*
X008670Y012982D01*
X008670Y012755D01*
X008697Y012688D01*
X008244Y012688D01*
X008330Y012774D01*
X008330Y013963D01*
X007984Y014308D01*
X007495Y014308D01*
X007150Y013963D01*
X007150Y012774D01*
X007235Y012688D01*
X006244Y012688D01*
X006330Y012774D01*
X006330Y013963D01*
X005984Y014308D01*
X005495Y014308D01*
X005150Y013963D01*
X005150Y012774D01*
X005235Y012688D01*
X003520Y012688D01*
X003520Y012848D01*
X002760Y012848D01*
X002760Y012389D01*
X002807Y012389D01*
X002327Y011908D01*
X001716Y011908D01*
X001535Y011727D01*
X001535Y014637D01*
X025801Y014637D01*
X025740Y014576D01*
X025740Y014161D01*
X026033Y013869D01*
X026447Y013869D01*
X026740Y014161D01*
X026740Y014576D01*
X026679Y014637D01*
X026945Y014637D01*
X026945Y011727D01*
X026763Y011908D01*
X026209Y011908D01*
X026189Y011929D01*
X026239Y011929D01*
X026239Y012368D01*
X025800Y012368D01*
X025800Y012318D01*
X025389Y012728D01*
X025091Y012728D01*
X024889Y012728D01*
X024710Y012908D01*
X024710Y013338D01*
X024770Y013338D01*
X024770Y012859D01*
X024841Y012859D01*
X025029Y012936D01*
X025172Y013080D01*
X025250Y013267D01*
X025250Y013338D01*
X024770Y013338D01*
X024770Y013399D01*
X024710Y013399D01*
X024710Y013878D01*
X024638Y013878D01*
X024451Y013801D01*
X024307Y013657D01*
X024230Y013470D01*
X024230Y013399D01*
X024709Y013399D01*
X024709Y013338D01*
X024230Y013338D01*
X024230Y013267D01*
X024246Y013228D01*
X024091Y013228D01*
X021299Y013228D01*
X021310Y013255D01*
X021310Y013482D01*
X021223Y013691D01*
X021063Y013852D01*
X020853Y013938D01*
X020626Y013938D01*
X020417Y013852D01*
X020256Y013691D01*
X020170Y013482D01*
X020170Y013448D01*
X019889Y013728D01*
X019591Y013728D01*
X017389Y013728D01*
X017240Y013878D01*
X017240Y014076D01*
X016947Y014368D01*
X016533Y014368D01*
X016393Y014228D01*
X016091Y014228D01*
X015880Y014018D01*
X014941Y013078D01*
X014898Y013078D01*
X014729Y013008D01*
X014600Y012879D01*
X014530Y012710D01*
X014530Y012540D01*
X014521Y012548D01*
X014260Y012548D01*
X014260Y011889D01*
X014220Y011889D01*
X014220Y012548D01*
X013958Y012548D01*
X013560Y012150D01*
X013560Y011889D01*
X014219Y011889D01*
X014219Y011848D01*
X013560Y011848D01*
X013560Y011587D01*
X013958Y011189D01*
X014220Y011189D01*
X014220Y011848D01*
X014260Y011848D01*
X014260Y011189D01*
X014521Y011189D01*
X014920Y011587D01*
X014920Y011848D01*
X014260Y011848D01*
X014260Y011889D01*
X014920Y011889D01*
X014920Y012150D01*
X014911Y012159D01*
X015081Y012159D01*
X015250Y012229D01*
X015380Y012358D01*
X015450Y012527D01*
X015450Y012569D01*
X016389Y013509D01*
X016393Y013509D01*
X016533Y013369D01*
X016731Y013369D01*
X016880Y013219D01*
X017091Y013009D01*
X017681Y013009D01*
X017670Y012982D01*
X017670Y012755D01*
X017756Y012546D01*
X017917Y012385D01*
X018126Y012299D01*
X018353Y012299D01*
X018563Y012385D01*
X018723Y012546D01*
X018740Y012586D01*
X018756Y012546D01*
X018917Y012385D01*
X019126Y012299D01*
X019353Y012299D01*
X019563Y012385D01*
X019723Y012546D01*
X019810Y012755D01*
X019810Y012789D01*
X019880Y012719D01*
X020091Y012509D01*
X022008Y012509D01*
X021800Y012301D01*
X021800Y012119D01*
X022239Y012119D01*
X022239Y012118D01*
X021800Y012118D01*
X021800Y011936D01*
X021868Y011868D01*
X021533Y011868D01*
X021240Y011576D01*
X021240Y011378D01*
X021091Y011228D01*
X020880Y011018D01*
X020880Y010233D01*
X017589Y010233D01*
X017375Y010020D01*
X017180Y009825D01*
X017180Y009868D01*
X016740Y009868D01*
X016740Y009429D01*
X016784Y009429D01*
X016589Y009233D01*
X016500Y009233D01*
X016500Y009486D01*
X016557Y009429D01*
X016739Y009429D01*
X016739Y009868D01*
X016300Y009868D01*
X016300Y009776D01*
X016207Y009868D01*
X015273Y009868D01*
X014980Y009576D01*
X014980Y009228D01*
X013646Y009228D01*
X013641Y009233D01*
X013500Y009233D01*
X013500Y009344D02*
X014980Y009344D01*
X014980Y009503D02*
X013500Y009503D01*
X013414Y009661D02*
X015066Y009661D01*
X015224Y009820D02*
X013255Y009820D01*
X013317Y009979D02*
X015162Y009979D01*
X015273Y009869D02*
X014980Y010161D01*
X014980Y010576D01*
X015273Y010868D01*
X016207Y010868D01*
X016500Y010576D01*
X016500Y010251D01*
X016557Y010308D01*
X016739Y010308D01*
X016739Y009869D01*
X016739Y009868D01*
X016740Y009868D01*
X016740Y009869D01*
X016739Y009869D01*
X016300Y009869D01*
X016300Y009961D01*
X016207Y009869D01*
X015273Y009869D01*
X015004Y010137D02*
X013475Y010137D01*
X013500Y010296D02*
X014980Y010296D01*
X014980Y010454D02*
X013500Y010454D01*
X013462Y010613D02*
X015017Y010613D01*
X015175Y010771D02*
X013304Y010771D01*
X013105Y010930D02*
X020880Y010930D01*
X020880Y010771D02*
X016304Y010771D01*
X016462Y010613D02*
X020880Y010613D01*
X020880Y010454D02*
X016500Y010454D01*
X016500Y010296D02*
X016545Y010296D01*
X016739Y010296D02*
X016740Y010296D01*
X016740Y010308D02*
X016740Y009869D01*
X017180Y009869D01*
X017180Y010051D01*
X016922Y010308D01*
X016740Y010308D01*
X016739Y010137D02*
X016740Y010137D01*
X016739Y009979D02*
X016740Y009979D01*
X016739Y009820D02*
X016740Y009820D01*
X016739Y009661D02*
X016740Y009661D01*
X016739Y009503D02*
X016740Y009503D01*
X016699Y009344D02*
X016500Y009344D01*
X017256Y008868D02*
X017891Y009504D01*
X020898Y009504D01*
X021033Y009369D01*
X021447Y009369D01*
X021740Y009661D01*
X021740Y010076D01*
X021600Y010216D01*
X021600Y010719D01*
X021749Y010869D01*
X021947Y010869D01*
X022240Y011161D01*
X022533Y010869D01*
X022947Y010869D01*
X023240Y011161D01*
X023240Y011576D01*
X022947Y011868D01*
X022612Y011868D01*
X022680Y011936D01*
X022680Y012118D01*
X022240Y012118D01*
X022240Y011679D01*
X022343Y011679D01*
X022240Y011576D01*
X022240Y011161D01*
X022240Y011576D01*
X022137Y011679D01*
X022239Y011679D01*
X022239Y012118D01*
X022240Y012118D01*
X022240Y012119D01*
X022240Y012509D01*
X022239Y012509D01*
X022239Y012119D01*
X022240Y012119D01*
X022680Y012119D01*
X022680Y012301D01*
X022472Y012509D01*
X024091Y012509D01*
X024291Y012308D01*
X024240Y012308D01*
X024240Y011869D01*
X024239Y011869D01*
X024239Y011868D01*
X023800Y011868D01*
X023800Y011686D01*
X024057Y011429D01*
X024239Y011429D01*
X024239Y011868D01*
X024240Y011868D01*
X024240Y011429D01*
X024422Y011429D01*
X024490Y011496D01*
X024490Y011326D01*
X024447Y011368D01*
X024033Y011368D01*
X023740Y011076D01*
X023740Y010661D01*
X024033Y010369D01*
X024375Y010369D01*
X024375Y009520D01*
X024375Y009217D01*
X024859Y008733D01*
X022891Y008733D01*
X022391Y009233D01*
X022089Y009233D01*
X022082Y009233D01*
X021947Y009368D01*
X021533Y009368D01*
X021240Y009076D01*
X021240Y008885D01*
X019780Y007425D01*
X019780Y007592D01*
X019463Y007908D01*
X019016Y007908D01*
X018700Y007592D01*
X018700Y007145D01*
X019016Y006829D01*
X019184Y006829D01*
X017589Y005233D01*
X016500Y005233D01*
X016500Y005576D01*
X016207Y005868D01*
X015273Y005868D01*
X014980Y005576D01*
X014980Y005161D01*
X015273Y004869D01*
X015273Y004868D02*
X014980Y004576D01*
X014980Y004161D01*
X015273Y003869D01*
X015273Y003868D02*
X015261Y003857D01*
X014850Y004268D01*
X014850Y007828D01*
X014880Y007858D01*
X014950Y008027D01*
X014950Y008210D01*
X014880Y008379D01*
X014750Y008508D01*
X014750Y008509D01*
X014980Y008509D01*
X014980Y008161D01*
X015273Y007869D01*
X016207Y007869D01*
X016500Y008161D01*
X016500Y008504D01*
X016589Y008504D01*
X016740Y008504D01*
X016740Y008161D01*
X017033Y007869D01*
X017447Y007869D01*
X017740Y008161D01*
X017740Y008576D01*
X017447Y008868D01*
X017256Y008868D01*
X017256Y008869D02*
X017670Y008869D01*
X017670Y008982D02*
X017670Y008755D01*
X017756Y008546D01*
X017917Y008385D01*
X018126Y008299D01*
X018353Y008299D01*
X018563Y008385D01*
X018723Y008546D01*
X018740Y008586D01*
X018756Y008546D01*
X018917Y008385D01*
X019126Y008299D01*
X019353Y008299D01*
X019563Y008385D01*
X019723Y008546D01*
X019810Y008755D01*
X019810Y008982D01*
X019723Y009191D01*
X019563Y009352D01*
X019353Y009438D01*
X019126Y009438D01*
X018917Y009352D01*
X018756Y009191D01*
X018740Y009151D01*
X018723Y009191D01*
X018563Y009352D01*
X018353Y009438D01*
X018126Y009438D01*
X017917Y009352D01*
X017756Y009191D01*
X017670Y008982D01*
X017689Y009027D02*
X017415Y009027D01*
X017573Y009186D02*
X017754Y009186D01*
X017732Y009344D02*
X017909Y009344D01*
X017890Y009503D02*
X020898Y009503D01*
X021509Y009344D02*
X019570Y009344D01*
X019725Y009186D02*
X021350Y009186D01*
X021240Y009027D02*
X019791Y009027D01*
X019810Y008869D02*
X021224Y008869D01*
X021065Y008710D02*
X019791Y008710D01*
X019725Y008552D02*
X020907Y008552D01*
X020748Y008393D02*
X019570Y008393D01*
X018909Y008393D02*
X018570Y008393D01*
X018725Y008552D02*
X018754Y008552D01*
X017909Y008393D02*
X017740Y008393D01*
X017740Y008235D02*
X020590Y008235D01*
X020431Y008076D02*
X017654Y008076D01*
X017496Y007918D02*
X020273Y007918D01*
X020114Y007759D02*
X019613Y007759D01*
X019771Y007600D02*
X019956Y007600D01*
X019797Y007442D02*
X019780Y007442D01*
X020512Y007125D02*
X020720Y007125D01*
X020700Y007283D02*
X020671Y007283D01*
X020878Y006966D02*
X020354Y006966D01*
X020195Y006808D02*
X024000Y006808D01*
X024089Y006719D02*
X025391Y006719D01*
X025760Y007088D01*
X025760Y007609D01*
X025391Y007978D01*
X024089Y007978D01*
X023720Y007609D01*
X023720Y007088D01*
X024089Y006719D01*
X023841Y006966D02*
X021601Y006966D01*
X021760Y007125D02*
X023720Y007125D01*
X023720Y007283D02*
X021780Y007283D01*
X021780Y007442D02*
X023720Y007442D01*
X023720Y007600D02*
X021771Y007600D01*
X021613Y007759D02*
X023869Y007759D01*
X024028Y007918D02*
X021305Y007918D01*
X021463Y008076D02*
X022516Y008076D01*
X022357Y008235D02*
X021622Y008235D01*
X021971Y008393D02*
X022199Y008393D01*
X022756Y008869D02*
X024723Y008869D01*
X024565Y009027D02*
X022597Y009027D01*
X022438Y009186D02*
X024406Y009186D01*
X024375Y009344D02*
X021971Y009344D01*
X021581Y009503D02*
X024375Y009503D01*
X024375Y009661D02*
X021740Y009661D01*
X021740Y009820D02*
X024375Y009820D01*
X024375Y009979D02*
X021740Y009979D01*
X021678Y010137D02*
X024375Y010137D01*
X024375Y010296D02*
X021600Y010296D01*
X021600Y010454D02*
X023947Y010454D01*
X023788Y010613D02*
X021600Y010613D01*
X021652Y010771D02*
X023740Y010771D01*
X023740Y010930D02*
X023008Y010930D01*
X023167Y011088D02*
X023752Y011088D01*
X023911Y011247D02*
X023240Y011247D01*
X023240Y011405D02*
X024490Y011405D01*
X024240Y011564D02*
X024239Y011564D01*
X024239Y011723D02*
X024240Y011723D01*
X024240Y011868D02*
X024240Y011869D01*
X024680Y011869D01*
X024680Y012009D01*
X025091Y012009D01*
X025453Y011646D01*
X025436Y011629D01*
X025197Y011868D01*
X024783Y011868D01*
X024680Y011766D01*
X024680Y011868D01*
X024240Y011868D01*
X024239Y011869D02*
X023800Y011869D01*
X023800Y012051D01*
X024057Y012308D01*
X024239Y012308D01*
X024239Y011869D01*
X024239Y011881D02*
X024240Y011881D01*
X024239Y012040D02*
X024240Y012040D01*
X024239Y012198D02*
X024240Y012198D01*
X024242Y012357D02*
X022624Y012357D01*
X022680Y012198D02*
X023947Y012198D01*
X023800Y012040D02*
X022680Y012040D01*
X022624Y011881D02*
X023800Y011881D01*
X023800Y011723D02*
X023093Y011723D01*
X023240Y011564D02*
X023922Y011564D01*
X024680Y011881D02*
X025218Y011881D01*
X025343Y011723D02*
X025376Y011723D01*
X026240Y011929D02*
X026422Y011929D01*
X026680Y012186D01*
X026680Y012368D01*
X026240Y012368D01*
X026240Y011929D01*
X026239Y012040D02*
X026240Y012040D01*
X026239Y012198D02*
X026240Y012198D01*
X026239Y012357D02*
X026240Y012357D01*
X026239Y012368D02*
X026240Y012368D01*
X026240Y012369D01*
X026239Y012369D01*
X026239Y012368D01*
X026239Y012369D02*
X025800Y012369D01*
X025800Y012551D01*
X026057Y012808D01*
X026239Y012808D01*
X026239Y012369D01*
X026240Y012369D02*
X026240Y012808D01*
X026422Y012808D01*
X026680Y012551D01*
X026680Y012369D01*
X026240Y012369D01*
X026239Y012515D02*
X026240Y012515D01*
X026239Y012674D02*
X026240Y012674D01*
X026557Y012674D02*
X026945Y012674D01*
X026945Y012832D02*
X024785Y012832D01*
X024770Y012991D02*
X024710Y012991D01*
X024710Y013149D02*
X024770Y013149D01*
X024770Y013308D02*
X024710Y013308D01*
X024770Y013399D02*
X025250Y013399D01*
X025250Y013470D01*
X025172Y013657D01*
X025029Y013801D01*
X024841Y013878D01*
X024770Y013878D01*
X024770Y013399D01*
X024770Y013467D02*
X024710Y013467D01*
X024710Y013625D02*
X024770Y013625D01*
X024770Y013784D02*
X024710Y013784D01*
X024434Y013784D02*
X021131Y013784D01*
X021250Y013625D02*
X024294Y013625D01*
X024230Y013467D02*
X021310Y013467D01*
X021310Y013308D02*
X024230Y013308D01*
X025083Y012991D02*
X026945Y012991D01*
X026945Y013149D02*
X025201Y013149D01*
X025250Y013308D02*
X026945Y013308D01*
X026945Y013467D02*
X025250Y013467D01*
X025185Y013625D02*
X026945Y013625D01*
X026945Y013784D02*
X025046Y013784D01*
X025800Y014101D02*
X017215Y014101D01*
X017240Y013942D02*
X025959Y013942D01*
X025740Y014259D02*
X017056Y014259D01*
X016423Y014259D02*
X014879Y014259D01*
X014867Y014288D02*
X014980Y014016D01*
X014980Y013721D01*
X014867Y013449D01*
X014659Y013241D01*
X014387Y013129D01*
X014092Y013129D01*
X013820Y013241D01*
X013612Y013449D01*
X013500Y013721D01*
X013500Y014016D01*
X013612Y014288D01*
X013820Y014496D01*
X014092Y014608D01*
X014387Y014608D01*
X014659Y014496D01*
X014867Y014288D01*
X014737Y014418D02*
X025740Y014418D01*
X025740Y014576D02*
X014464Y014576D01*
X014015Y014576D02*
X001535Y014576D01*
X001535Y014418D02*
X010349Y014418D01*
X010190Y014259D02*
X008033Y014259D01*
X008192Y014101D02*
X010075Y014101D01*
X010075Y013942D02*
X008330Y013942D01*
X008330Y013784D02*
X010075Y013784D01*
X010075Y013625D02*
X008330Y013625D01*
X008330Y013467D02*
X010201Y013467D01*
X009873Y013308D02*
X009606Y013308D01*
X008873Y013308D02*
X008330Y013308D01*
X008330Y013149D02*
X008739Y013149D01*
X008673Y012991D02*
X008330Y012991D01*
X008330Y012832D02*
X008670Y012832D01*
X007150Y012832D02*
X006330Y012832D01*
X006330Y012991D02*
X007150Y012991D01*
X007150Y013149D02*
X006330Y013149D01*
X006330Y013308D02*
X007150Y013308D01*
X007150Y013467D02*
X006330Y013467D01*
X006330Y013625D02*
X007150Y013625D01*
X007150Y013784D02*
X006330Y013784D01*
X006330Y013942D02*
X007150Y013942D01*
X007288Y014101D02*
X006192Y014101D01*
X006033Y014259D02*
X007446Y014259D01*
X005446Y014259D02*
X003413Y014259D01*
X003263Y014408D02*
X003580Y014092D01*
X003580Y013645D01*
X003263Y013329D01*
X003258Y013329D01*
X003520Y013067D01*
X003520Y012889D01*
X002760Y012889D01*
X002760Y012848D01*
X002720Y012848D01*
X002720Y012389D01*
X002241Y012389D01*
X001960Y012670D01*
X001960Y012848D01*
X002719Y012848D01*
X002719Y012889D01*
X001960Y012889D01*
X001960Y013067D01*
X002221Y013329D01*
X002216Y013329D01*
X001900Y013645D01*
X001900Y014092D01*
X002216Y014408D01*
X003263Y014408D01*
X003571Y014101D02*
X005288Y014101D01*
X005150Y013942D02*
X003580Y013942D01*
X003580Y013784D02*
X005150Y013784D01*
X005150Y013625D02*
X003560Y013625D01*
X003401Y013467D02*
X005150Y013467D01*
X005150Y013308D02*
X003279Y013308D01*
X003437Y013149D02*
X005150Y013149D01*
X005150Y012991D02*
X003520Y012991D01*
X003520Y012832D02*
X005150Y012832D01*
X005085Y012040D02*
X012375Y012040D01*
X012375Y011881D02*
X005243Y011881D01*
X005105Y012020D02*
X005105Y012020D01*
X005402Y011723D02*
X012375Y011723D01*
X012375Y011564D02*
X005560Y011564D01*
X005605Y011405D02*
X012375Y011405D01*
X012375Y011247D02*
X005605Y011247D01*
X005605Y011088D02*
X012375Y011088D01*
X012375Y010930D02*
X005605Y010930D01*
X005605Y010771D02*
X012175Y010771D01*
X012017Y010613D02*
X010512Y010613D01*
X010670Y010454D02*
X011980Y010454D01*
X011980Y010296D02*
X011935Y010296D01*
X011740Y010296D02*
X011739Y010296D01*
X011739Y010308D02*
X011557Y010308D01*
X011300Y010051D01*
X011300Y009869D01*
X011739Y009869D01*
X011739Y010308D01*
X011739Y010137D02*
X011740Y010137D01*
X011739Y009979D02*
X011740Y009979D01*
X011545Y010296D02*
X010829Y010296D01*
X010987Y010137D02*
X011386Y010137D01*
X011300Y009979D02*
X011146Y009979D01*
X012180Y009820D02*
X012224Y009820D01*
X013105Y011088D02*
X020950Y011088D01*
X021109Y011247D02*
X014580Y011247D01*
X014738Y011405D02*
X021240Y011405D01*
X021240Y011564D02*
X014897Y011564D01*
X014920Y011723D02*
X021387Y011723D01*
X021855Y011881D02*
X014260Y011881D01*
X014219Y011881D02*
X013105Y011881D01*
X013105Y011723D02*
X013560Y011723D01*
X013583Y011564D02*
X013105Y011564D01*
X013105Y011405D02*
X013741Y011405D01*
X013900Y011247D02*
X013105Y011247D01*
X014220Y011247D02*
X014260Y011247D01*
X014260Y011405D02*
X014220Y011405D01*
X014220Y011564D02*
X014260Y011564D01*
X014260Y011723D02*
X014220Y011723D01*
X014220Y012040D02*
X014260Y012040D01*
X014260Y012198D02*
X014220Y012198D01*
X014220Y012357D02*
X014260Y012357D01*
X014260Y012515D02*
X014220Y012515D01*
X013925Y012515D02*
X013105Y012515D01*
X013105Y012357D02*
X013766Y012357D01*
X013608Y012198D02*
X013105Y012198D01*
X013105Y012040D02*
X013560Y012040D01*
X012740Y012369D02*
X003240Y012369D01*
X002240Y011369D01*
X001689Y011881D02*
X001535Y011881D01*
X001535Y012040D02*
X002458Y012040D01*
X002617Y012198D02*
X001535Y012198D01*
X001535Y012357D02*
X002775Y012357D01*
X002760Y012515D02*
X002720Y012515D01*
X002720Y012674D02*
X002760Y012674D01*
X002760Y012832D02*
X002720Y012832D01*
X002114Y012515D02*
X001535Y012515D01*
X001535Y012674D02*
X001960Y012674D01*
X001960Y012832D02*
X001535Y012832D01*
X001535Y012991D02*
X001960Y012991D01*
X002042Y013149D02*
X001535Y013149D01*
X001535Y013308D02*
X002200Y013308D01*
X002078Y013467D02*
X001535Y013467D01*
X001535Y013625D02*
X001919Y013625D01*
X001900Y013784D02*
X001535Y013784D01*
X001535Y013942D02*
X001900Y013942D01*
X001908Y014101D02*
X001535Y014101D01*
X001535Y014259D02*
X002067Y014259D01*
X001240Y015869D02*
X001240Y019369D01*
X005240Y019369D01*
X011131Y014418D02*
X013742Y014418D01*
X013601Y014259D02*
X012056Y014259D01*
X012524Y014101D02*
X013535Y014101D01*
X013500Y013942D02*
X012682Y013942D01*
X012841Y013784D02*
X013500Y013784D01*
X013539Y013625D02*
X012999Y013625D01*
X013105Y013467D02*
X013605Y013467D01*
X013754Y013308D02*
X013105Y013308D01*
X013105Y013149D02*
X014042Y013149D01*
X014437Y013149D02*
X015012Y013149D01*
X015170Y013308D02*
X014726Y013308D01*
X014874Y013467D02*
X015329Y013467D01*
X015487Y013625D02*
X014940Y013625D01*
X014980Y013784D02*
X015646Y013784D01*
X015804Y013942D02*
X014980Y013942D01*
X014944Y014101D02*
X015963Y014101D01*
X017334Y013784D02*
X020349Y013784D01*
X020229Y013625D02*
X019992Y013625D01*
X020151Y013467D02*
X020170Y013467D01*
X019925Y012674D02*
X019776Y012674D01*
X019693Y012515D02*
X020084Y012515D01*
X019494Y012357D02*
X021856Y012357D01*
X021800Y012198D02*
X015177Y012198D01*
X015378Y012357D02*
X017986Y012357D01*
X017787Y012515D02*
X015445Y012515D01*
X015554Y012674D02*
X017703Y012674D01*
X017670Y012832D02*
X015713Y012832D01*
X015871Y012991D02*
X017673Y012991D01*
X016950Y013149D02*
X016030Y013149D01*
X016188Y013308D02*
X016791Y013308D01*
X016435Y013467D02*
X016347Y013467D01*
X014712Y012991D02*
X013105Y012991D01*
X013105Y012832D02*
X014580Y012832D01*
X014530Y012674D02*
X013105Y012674D01*
X014920Y012040D02*
X021800Y012040D01*
X022239Y012040D02*
X022240Y012040D01*
X022239Y012198D02*
X022240Y012198D01*
X022239Y012357D02*
X022240Y012357D01*
X022239Y011881D02*
X022240Y011881D01*
X022239Y011723D02*
X022240Y011723D01*
X022240Y011564D02*
X022240Y011564D01*
X022240Y011405D02*
X022240Y011405D01*
X022240Y011247D02*
X022240Y011247D01*
X022167Y011088D02*
X022313Y011088D01*
X022471Y010930D02*
X022008Y010930D01*
X020880Y010296D02*
X016935Y010296D01*
X017093Y010137D02*
X017492Y010137D01*
X017334Y009979D02*
X017180Y009979D01*
X016300Y009820D02*
X016255Y009820D01*
X018570Y009344D02*
X018909Y009344D01*
X018754Y009186D02*
X018725Y009186D01*
X017688Y008710D02*
X017605Y008710D01*
X017740Y008552D02*
X017754Y008552D01*
X016740Y008393D02*
X016500Y008393D01*
X016500Y008235D02*
X016740Y008235D01*
X016825Y008076D02*
X016414Y008076D01*
X016256Y007918D02*
X016984Y007918D01*
X016440Y007551D02*
X016182Y007808D01*
X015740Y007808D01*
X015740Y007369D01*
X015739Y007369D01*
X015739Y007368D01*
X015040Y007368D01*
X015040Y007186D01*
X015297Y006929D01*
X015739Y006929D01*
X015739Y007368D01*
X015740Y007368D01*
X015740Y006929D01*
X016182Y006929D01*
X016440Y007186D01*
X016440Y007368D01*
X015740Y007368D01*
X015740Y007369D01*
X016440Y007369D01*
X016440Y007551D01*
X016390Y007600D02*
X018708Y007600D01*
X018700Y007442D02*
X016440Y007442D01*
X016440Y007283D02*
X018700Y007283D01*
X018720Y007125D02*
X016378Y007125D01*
X016220Y006966D02*
X018878Y006966D01*
X019163Y006808D02*
X016183Y006808D01*
X016182Y006808D02*
X015740Y006808D01*
X015739Y006808D01*
X015297Y006808D01*
X014850Y006808D01*
X014850Y006966D02*
X015260Y006966D01*
X015297Y006808D02*
X015040Y006551D01*
X015040Y006369D01*
X015739Y006369D01*
X015739Y006368D01*
X015040Y006368D01*
X015040Y006186D01*
X015297Y005929D01*
X015739Y005929D01*
X015739Y006368D01*
X015740Y006368D01*
X015740Y005929D01*
X016182Y005929D01*
X016440Y006186D01*
X016440Y006368D01*
X015740Y006368D01*
X015740Y006369D01*
X015739Y006369D01*
X015739Y006808D01*
X015740Y006808D02*
X015740Y006369D01*
X016440Y006369D01*
X016440Y006551D01*
X016182Y006808D01*
X016341Y006649D02*
X019004Y006649D01*
X018846Y006491D02*
X016440Y006491D01*
X016440Y006332D02*
X018687Y006332D01*
X018529Y006174D02*
X016427Y006174D01*
X016268Y006015D02*
X018370Y006015D01*
X018212Y005856D02*
X016219Y005856D01*
X016377Y005698D02*
X018053Y005698D01*
X017894Y005539D02*
X016500Y005539D01*
X016500Y005381D02*
X017736Y005381D01*
X018292Y004905D02*
X018939Y004905D01*
X018781Y005064D02*
X018451Y005064D01*
X018610Y005222D02*
X018700Y005222D01*
X018134Y004747D02*
X026945Y004747D01*
X026945Y004905D02*
X025547Y004905D01*
X025391Y004749D02*
X025760Y005118D01*
X025760Y005639D01*
X025391Y006008D01*
X024089Y006008D01*
X023720Y005639D01*
X023720Y005118D01*
X024089Y004749D01*
X025391Y004749D01*
X025706Y005064D02*
X026945Y005064D01*
X026945Y005222D02*
X025760Y005222D01*
X025760Y005381D02*
X026945Y005381D01*
X026945Y005539D02*
X025760Y005539D01*
X025701Y005698D02*
X026945Y005698D01*
X026945Y005856D02*
X025543Y005856D01*
X026945Y006015D02*
X019402Y006015D01*
X019515Y005856D02*
X020964Y005856D01*
X021016Y005908D02*
X020700Y005592D01*
X020700Y005145D01*
X021016Y004829D01*
X021463Y004829D01*
X021780Y005145D01*
X021780Y005592D01*
X021463Y005908D01*
X021016Y005908D01*
X020805Y005698D02*
X019674Y005698D01*
X019780Y005539D02*
X020700Y005539D01*
X020700Y005381D02*
X019780Y005381D01*
X019780Y005222D02*
X020700Y005222D01*
X020781Y005064D02*
X019699Y005064D01*
X019540Y004905D02*
X020939Y004905D01*
X021540Y004905D02*
X023932Y004905D01*
X023774Y005064D02*
X021699Y005064D01*
X021780Y005222D02*
X023720Y005222D01*
X023720Y005381D02*
X021780Y005381D01*
X021780Y005539D02*
X023720Y005539D01*
X023778Y005698D02*
X021674Y005698D01*
X021515Y005856D02*
X023937Y005856D01*
X025480Y006808D02*
X026945Y006808D01*
X026945Y006966D02*
X025638Y006966D01*
X025760Y007125D02*
X026945Y007125D01*
X026945Y007283D02*
X025760Y007283D01*
X025760Y007442D02*
X026945Y007442D01*
X026945Y007600D02*
X025760Y007600D01*
X025610Y007759D02*
X026945Y007759D01*
X026945Y007918D02*
X025452Y007918D01*
X026213Y008076D02*
X026945Y008076D01*
X026945Y008235D02*
X026372Y008235D01*
X026530Y008393D02*
X026945Y008393D01*
X026945Y008552D02*
X026605Y008552D01*
X026605Y008710D02*
X026945Y008710D01*
X026945Y008869D02*
X026605Y008869D01*
X026605Y009027D02*
X026945Y009027D01*
X026945Y009186D02*
X026605Y009186D01*
X026605Y009344D02*
X026945Y009344D01*
X026945Y009503D02*
X026605Y009503D01*
X026605Y009661D02*
X026945Y009661D01*
X026945Y009820D02*
X026605Y009820D01*
X026913Y009979D02*
X026945Y009979D01*
X026945Y011881D02*
X026791Y011881D01*
X026945Y012040D02*
X026533Y012040D01*
X026680Y012198D02*
X026945Y012198D01*
X026945Y012357D02*
X026680Y012357D01*
X026680Y012515D02*
X026945Y012515D01*
X025923Y012674D02*
X025443Y012674D01*
X025602Y012515D02*
X025800Y012515D01*
X025800Y012357D02*
X025761Y012357D01*
X026520Y013942D02*
X026945Y013942D01*
X026945Y014101D02*
X026679Y014101D01*
X026740Y014259D02*
X026945Y014259D01*
X026945Y014418D02*
X026740Y014418D01*
X026739Y014576D02*
X026945Y014576D01*
X018986Y012357D02*
X018494Y012357D01*
X018693Y012515D02*
X018787Y012515D01*
X011423Y014259D02*
X011289Y014259D01*
X004687Y011405D02*
X004484Y011405D01*
X004447Y011369D02*
X004582Y011504D01*
X004589Y011504D01*
X004875Y011217D01*
X004875Y010520D01*
X004589Y010233D01*
X004082Y010233D01*
X003947Y010368D01*
X003605Y010368D01*
X003605Y010869D01*
X003697Y010869D01*
X003800Y010971D01*
X003800Y010869D01*
X004239Y010869D01*
X004239Y010868D01*
X003800Y010868D01*
X003800Y010686D01*
X004057Y010429D01*
X004239Y010429D01*
X004239Y010868D01*
X004240Y010868D01*
X004240Y010429D01*
X004422Y010429D01*
X004680Y010686D01*
X004680Y010868D01*
X004240Y010868D01*
X004240Y010869D01*
X004239Y010869D01*
X004239Y011308D01*
X004057Y011308D01*
X003990Y011241D01*
X003990Y011411D01*
X004033Y011369D01*
X004447Y011369D01*
X004422Y011308D02*
X004240Y011308D01*
X004240Y010869D01*
X004680Y010869D01*
X004680Y011051D01*
X004422Y011308D01*
X004483Y011247D02*
X004845Y011247D01*
X004875Y011088D02*
X004642Y011088D01*
X004680Y010930D02*
X004875Y010930D01*
X004875Y010771D02*
X004680Y010771D01*
X004606Y010613D02*
X004875Y010613D01*
X004809Y010454D02*
X004448Y010454D01*
X004240Y010454D02*
X004239Y010454D01*
X004239Y010613D02*
X004240Y010613D01*
X004239Y010771D02*
X004240Y010771D01*
X004239Y010930D02*
X004240Y010930D01*
X004239Y011088D02*
X004240Y011088D01*
X004239Y011247D02*
X004240Y011247D01*
X003996Y011247D02*
X003990Y011247D01*
X003990Y011405D02*
X003996Y011405D01*
X003800Y010930D02*
X003758Y010930D01*
X003800Y010771D02*
X003605Y010771D01*
X003605Y010613D02*
X003873Y010613D01*
X004032Y010454D02*
X003605Y010454D01*
X004020Y010296D02*
X004651Y010296D01*
X005366Y009979D02*
X007240Y009979D01*
X007240Y009820D02*
X005207Y009820D01*
X005049Y009661D02*
X007240Y009661D01*
X007375Y009503D02*
X004081Y009503D01*
X003605Y009344D02*
X007009Y009344D01*
X006850Y009186D02*
X003629Y009186D01*
X003740Y009027D02*
X006740Y009027D01*
X006740Y008869D02*
X003740Y008869D01*
X003740Y008710D02*
X006740Y008710D01*
X006849Y008552D02*
X003630Y008552D01*
X003471Y008393D02*
X007008Y008393D01*
X013850Y008393D02*
X014114Y008393D01*
X014040Y008235D02*
X013850Y008235D01*
X013850Y008076D02*
X014030Y008076D01*
X014075Y007918D02*
X013850Y007918D01*
X013850Y007759D02*
X014130Y007759D01*
X014130Y007600D02*
X013850Y007600D01*
X013850Y007442D02*
X014130Y007442D01*
X014130Y007283D02*
X013850Y007283D01*
X013850Y007125D02*
X014130Y007125D01*
X014130Y006966D02*
X013850Y006966D01*
X013850Y006808D02*
X014130Y006808D01*
X014130Y006649D02*
X013850Y006649D01*
X013850Y006491D02*
X014130Y006491D01*
X014130Y006332D02*
X013850Y006332D01*
X013850Y006174D02*
X014130Y006174D01*
X014130Y006015D02*
X013850Y006015D01*
X013850Y005856D02*
X014130Y005856D01*
X014130Y005698D02*
X013850Y005698D01*
X013850Y005539D02*
X014130Y005539D01*
X014130Y005381D02*
X013850Y005381D01*
X013850Y005222D02*
X014130Y005222D01*
X014130Y005064D02*
X013850Y005064D01*
X013850Y004905D02*
X014130Y004905D01*
X014130Y004747D02*
X013850Y004747D01*
X013850Y004588D02*
X014130Y004588D01*
X014130Y004430D02*
X013850Y004430D01*
X013850Y004271D02*
X014130Y004271D01*
X014130Y004112D02*
X013850Y004112D01*
X013850Y003954D02*
X014145Y003954D01*
X014304Y003795D02*
X013850Y003795D01*
X013850Y003637D02*
X014462Y003637D01*
X014621Y003478D02*
X013850Y003478D01*
X013700Y003320D02*
X014779Y003320D01*
X014938Y003161D02*
X013541Y003161D01*
X013341Y003003D02*
X015138Y003003D01*
X016341Y003003D02*
X016500Y003003D01*
X016658Y002844D02*
X011906Y002844D01*
X012064Y003003D02*
X012138Y003003D01*
X011074Y002844D02*
X009740Y002844D01*
X009740Y002686D02*
X018740Y002686D01*
X018740Y002844D02*
X017321Y002844D01*
X017479Y003003D02*
X018740Y003003D01*
X018825Y003161D02*
X017595Y003161D01*
X017595Y003478D02*
X018923Y003478D01*
X019033Y003369D02*
X019447Y003369D01*
X019740Y003661D01*
X019740Y004076D01*
X019447Y004368D01*
X019033Y004368D01*
X018740Y004076D01*
X018740Y003661D01*
X019033Y003369D01*
X018984Y003320D02*
X017040Y003320D01*
X017040Y003161D02*
X016940Y003161D01*
X016940Y003003D02*
X017040Y003003D01*
X017040Y002844D02*
X016940Y002844D01*
X016420Y003655D02*
X016207Y003868D01*
X015273Y003868D01*
X015273Y003869D02*
X016207Y003869D01*
X016500Y004161D01*
X016500Y004504D01*
X016740Y004504D01*
X016740Y004161D01*
X016928Y003973D01*
X016739Y003973D01*
X016420Y003655D01*
X016280Y003795D02*
X016561Y003795D01*
X016720Y003954D02*
X016292Y003954D01*
X016451Y004112D02*
X016789Y004112D01*
X016740Y004271D02*
X016500Y004271D01*
X016500Y004430D02*
X016740Y004430D01*
X017532Y003954D02*
X018740Y003954D01*
X018740Y003795D02*
X017418Y003795D01*
X017577Y003637D02*
X018764Y003637D01*
X019495Y003320D02*
X026945Y003320D01*
X026945Y003478D02*
X019557Y003478D01*
X019715Y003637D02*
X026945Y003637D01*
X026945Y003795D02*
X019740Y003795D01*
X019740Y003954D02*
X026945Y003954D01*
X026945Y004112D02*
X019703Y004112D01*
X019544Y004271D02*
X026945Y004271D01*
X026945Y004430D02*
X017740Y004430D01*
X017740Y004271D02*
X018935Y004271D01*
X018777Y004112D02*
X017691Y004112D01*
X017975Y004588D02*
X026945Y004588D01*
X026945Y003161D02*
X019654Y003161D01*
X019740Y003003D02*
X026945Y003003D01*
X026945Y002844D02*
X019740Y002844D01*
X019740Y002686D02*
X026945Y002686D01*
X026945Y006174D02*
X019561Y006174D01*
X019719Y006332D02*
X026945Y006332D01*
X026945Y006491D02*
X019878Y006491D01*
X020036Y006649D02*
X026945Y006649D01*
X018867Y007759D02*
X016231Y007759D01*
X015740Y007759D02*
X015739Y007759D01*
X015739Y007808D02*
X015297Y007808D01*
X015040Y007551D01*
X015040Y007369D01*
X015739Y007369D01*
X015739Y007808D01*
X015739Y007600D02*
X015740Y007600D01*
X015739Y007442D02*
X015740Y007442D01*
X015739Y007283D02*
X015740Y007283D01*
X015739Y007125D02*
X015740Y007125D01*
X015739Y006966D02*
X015740Y006966D01*
X015739Y006649D02*
X015740Y006649D01*
X015739Y006491D02*
X015740Y006491D01*
X015739Y006332D02*
X015740Y006332D01*
X015739Y006174D02*
X015740Y006174D01*
X015739Y006015D02*
X015740Y006015D01*
X015261Y005856D02*
X014850Y005856D01*
X014850Y005698D02*
X015102Y005698D01*
X014980Y005539D02*
X014850Y005539D01*
X014850Y005381D02*
X014980Y005381D01*
X014980Y005222D02*
X014850Y005222D01*
X014850Y005064D02*
X015077Y005064D01*
X015236Y004905D02*
X014850Y004905D01*
X014850Y004747D02*
X015151Y004747D01*
X015273Y004868D02*
X015724Y004868D01*
X015724Y004869D01*
X015273Y004869D01*
X014992Y004588D02*
X014850Y004588D01*
X014850Y004430D02*
X014980Y004430D01*
X014980Y004271D02*
X014850Y004271D01*
X015005Y004112D02*
X015029Y004112D01*
X015163Y003954D02*
X015187Y003954D01*
X010976Y003795D02*
X009740Y003795D01*
X009740Y003661D02*
X009447Y003369D01*
X009033Y003369D01*
X008740Y003661D01*
X008740Y004076D01*
X009033Y004368D01*
X009447Y004368D01*
X009740Y004076D01*
X009740Y003661D01*
X009715Y003637D02*
X010825Y003637D01*
X010825Y003478D02*
X009557Y003478D01*
X009495Y003320D02*
X010825Y003320D01*
X010825Y003161D02*
X009654Y003161D01*
X009740Y003003D02*
X010915Y003003D01*
X008984Y003320D02*
X001535Y003320D01*
X001535Y003478D02*
X008923Y003478D01*
X008764Y003637D02*
X001535Y003637D01*
X001535Y003795D02*
X008740Y003795D01*
X008740Y003954D02*
X001535Y003954D01*
X001535Y004112D02*
X008777Y004112D01*
X008935Y004271D02*
X001535Y004271D01*
X001535Y004430D02*
X010740Y004430D01*
X010740Y004271D02*
X009544Y004271D01*
X009703Y004112D02*
X010789Y004112D01*
X010947Y003954D02*
X009740Y003954D01*
X010504Y004588D02*
X001535Y004588D01*
X001535Y003161D02*
X008825Y003161D01*
X008740Y003003D02*
X001535Y003003D01*
X001535Y002844D02*
X008740Y002844D01*
X008740Y002686D02*
X001535Y002686D01*
X014850Y006015D02*
X015211Y006015D01*
X015052Y006174D02*
X014850Y006174D01*
X014850Y006332D02*
X015040Y006332D01*
X015040Y006491D02*
X014850Y006491D01*
X014850Y006649D02*
X015138Y006649D01*
X015101Y007125D02*
X014850Y007125D01*
X014850Y007283D02*
X015040Y007283D01*
X015040Y007442D02*
X014850Y007442D01*
X014850Y007600D02*
X015089Y007600D01*
X015248Y007759D02*
X014850Y007759D01*
X014904Y007918D02*
X015224Y007918D01*
X015065Y008076D02*
X014950Y008076D01*
X014939Y008235D02*
X014980Y008235D01*
X014980Y008393D02*
X014866Y008393D01*
D12*
X015740Y008369D03*
X015740Y009369D03*
X015740Y010369D03*
X012740Y010369D03*
X012740Y009369D03*
X012740Y008369D03*
X012740Y007369D03*
X012740Y006369D03*
X012740Y005369D03*
X012740Y004369D03*
X012740Y003369D03*
X015740Y003369D03*
X015740Y004369D03*
X015740Y005369D03*
X015740Y006369D03*
X015740Y007369D03*
D13*
X018240Y008869D03*
X019240Y008869D03*
X010240Y008869D03*
X009240Y008869D03*
X009240Y012869D03*
X010240Y012869D03*
X018240Y012869D03*
X019240Y012869D03*
X020740Y013369D03*
X024740Y013369D03*
D14*
X007740Y013369D03*
X005740Y013369D03*
D15*
X014240Y013869D03*
D16*
X014240Y011869D03*
D17*
X019240Y007369D03*
X021240Y007369D03*
X021240Y005369D03*
X019240Y005369D03*
X009240Y005369D03*
X007240Y005369D03*
X007240Y007369D03*
X009240Y007369D03*
D18*
X011240Y008369D03*
X011740Y009869D03*
X007740Y009869D03*
X007240Y008869D03*
X003740Y009869D03*
X004240Y010869D03*
X003490Y011369D03*
X004240Y011869D03*
X003240Y008869D03*
X011240Y004369D03*
X009240Y003869D03*
X009240Y002869D03*
X017240Y004369D03*
X019240Y003869D03*
X019240Y002869D03*
X017240Y008369D03*
X016740Y009869D03*
X021240Y009869D03*
X021740Y008869D03*
X025240Y009869D03*
X025740Y008869D03*
X024240Y010869D03*
X024990Y011369D03*
X024240Y011869D03*
X022740Y011369D03*
X021740Y011369D03*
X022240Y012119D03*
X026240Y012369D03*
X026240Y014369D03*
X016740Y013869D03*
X011740Y013869D03*
D19*
X002740Y013869D03*
X002740Y012869D03*
X002240Y011369D03*
X002240Y010369D03*
X026240Y010369D03*
X026240Y011369D03*
D20*
X024740Y007349D03*
X024740Y005379D03*
X003740Y005389D03*
X003740Y007359D03*
D21*
X011490Y003369D03*
X016990Y003369D03*
X010740Y013869D03*
D22*
X014240Y011869D02*
X016740Y011869D01*
X019990Y011869D01*
X020490Y012369D01*
X022240Y012369D01*
X022240Y012119D01*
X022240Y012369D02*
X023740Y012369D01*
X024240Y011869D01*
D23*
X024990Y011369D02*
X024990Y010619D01*
X024740Y010369D01*
X024740Y009369D01*
X025240Y008869D01*
X025740Y008869D01*
X025990Y008369D02*
X026240Y008619D01*
X026240Y010369D01*
X022740Y008369D02*
X022240Y008869D01*
X021740Y008869D01*
X017740Y004869D01*
X016240Y004869D01*
X015740Y004369D01*
X012740Y004369D02*
X012240Y004869D01*
X010740Y004869D01*
X009490Y006119D01*
X008990Y006119D01*
X008240Y006869D01*
X008240Y007869D01*
X007240Y008869D01*
X007740Y009369D02*
X008990Y008119D01*
X010240Y008119D01*
X010990Y008869D01*
X013490Y008869D01*
X012740Y009369D02*
X011240Y009369D01*
X010240Y010369D01*
X005240Y010369D01*
X005240Y011369D01*
X004740Y011869D01*
X004240Y011869D01*
X003490Y011369D02*
X003240Y011119D01*
X003240Y008869D01*
X003740Y009869D02*
X004740Y009869D01*
X005240Y010369D01*
X007740Y009869D02*
X007740Y009369D01*
X012740Y010369D02*
X012740Y012369D01*
X012740Y013369D01*
X012240Y013869D01*
X011740Y013869D01*
X016740Y011869D02*
X016740Y009869D01*
X017740Y009869D02*
X021240Y009869D01*
X022740Y008369D02*
X025990Y008369D01*
X017740Y009869D02*
X016740Y008869D01*
X015990Y008869D01*
D24*
X022490Y003119D03*
X005990Y003119D03*
D25*
X010240Y006369D03*
X011240Y006369D03*
X011740Y006869D03*
X011240Y007369D03*
X010740Y006869D03*
X016740Y006869D03*
X017240Y007369D03*
X017740Y006869D03*
X018240Y006369D03*
X017240Y006369D03*
D26*
X014490Y008119D02*
X014490Y004119D01*
X015240Y003369D01*
X015740Y003369D01*
X013490Y003619D02*
X013490Y008869D01*
X015990Y008869D01*
X021240Y009869D02*
X021240Y010869D01*
X021740Y011369D01*
X024240Y012869D02*
X024740Y012369D01*
X025240Y012369D01*
X026240Y011369D01*
X024240Y012869D02*
X020240Y012869D01*
X019740Y013369D01*
X017240Y013369D01*
X016740Y013869D01*
X016240Y013869D01*
X014990Y012619D01*
X013490Y003619D02*
X013240Y003369D01*
X012740Y003369D01*
X011490Y003369D01*
D27*
X014490Y008119D03*
X014990Y012619D03*
M02*
