G75*
G70*
%OFA0B0*%
%FSLAX24Y24*%
%IPPOS*%
%LPD*%
%AMOC8*
5,1,8,0,0,1.08239X$1,22.5*
%
%ADD10C,0.0000*%
%ADD11C,0.0060*%
%ADD12C,0.0160*%
%ADD13C,0.0030*%
%ADD14C,0.0040*%
%ADD15C,0.0050*%
%ADD16C,0.0010*%
D10*
X001055Y002120D02*
X001055Y015117D01*
X027425Y015117D01*
X027425Y002120D01*
X001055Y002120D01*
D11*
X030212Y013231D02*
X030532Y013231D01*
X030639Y013338D01*
X030639Y013765D01*
X030532Y013871D01*
X030212Y013871D01*
X030212Y013231D01*
X030856Y013338D02*
X030963Y013444D01*
X031283Y013444D01*
X031283Y013551D02*
X031283Y013231D01*
X030963Y013231D01*
X030856Y013338D01*
X030963Y013658D02*
X031176Y013658D01*
X031283Y013551D01*
X031501Y013658D02*
X031714Y013658D01*
X031607Y013765D02*
X031607Y013338D01*
X031714Y013231D01*
X031930Y013338D02*
X031930Y013551D01*
X032037Y013658D01*
X032251Y013658D01*
X032357Y013551D01*
X032357Y013444D01*
X031930Y013444D01*
X031930Y013338D02*
X032037Y013231D01*
X032251Y013231D01*
X032575Y013231D02*
X032575Y013338D01*
X032682Y013338D01*
X032682Y013231D01*
X032575Y013231D01*
X032575Y013551D02*
X032575Y013658D01*
X032682Y013658D01*
X032682Y013551D01*
X032575Y013551D01*
X033542Y013658D02*
X033755Y013871D01*
X033755Y013231D01*
X033542Y013231D02*
X033969Y013231D01*
X034186Y013338D02*
X034613Y013765D01*
X034613Y013338D01*
X034506Y013231D01*
X034293Y013231D01*
X034186Y013338D01*
X034186Y013765D01*
X034293Y013871D01*
X034506Y013871D01*
X034613Y013765D01*
X034615Y014017D02*
X034721Y014017D01*
X034828Y014124D01*
X034828Y014658D01*
X034508Y014658D01*
X034401Y014551D01*
X034401Y014338D01*
X034508Y014231D01*
X034828Y014231D01*
X035046Y014338D02*
X035046Y014551D01*
X035152Y014658D01*
X035366Y014658D01*
X035473Y014551D01*
X035473Y014444D01*
X035046Y014444D01*
X035046Y014338D02*
X035152Y014231D01*
X035366Y014231D01*
X035690Y014231D02*
X035690Y014658D01*
X036010Y014658D01*
X036117Y014551D01*
X036117Y014231D01*
X036335Y014338D02*
X036335Y014551D01*
X036441Y014658D01*
X036762Y014658D01*
X036335Y014338D02*
X036441Y014231D01*
X036762Y014231D01*
X036762Y014871D01*
X034184Y014551D02*
X034184Y014444D01*
X033757Y014444D01*
X033757Y014338D02*
X033757Y014551D01*
X033863Y014658D01*
X034077Y014658D01*
X034184Y014551D01*
X033863Y014231D02*
X033757Y014338D01*
X033863Y014231D02*
X034077Y014231D01*
X033540Y014231D02*
X033327Y014231D01*
X033434Y014231D02*
X033434Y014871D01*
X033327Y014871D01*
X032359Y014871D02*
X032359Y014231D01*
X032253Y014231D02*
X032466Y014231D01*
X032036Y014231D02*
X031823Y014231D01*
X031930Y014231D02*
X031930Y014871D01*
X031823Y014871D01*
X031500Y014871D02*
X031500Y014978D01*
X032253Y014871D02*
X032359Y014871D01*
X031500Y014658D02*
X031500Y014231D01*
X031393Y014231D02*
X031607Y014231D01*
X031500Y014658D02*
X031393Y014658D01*
X031176Y014658D02*
X031070Y014658D01*
X030856Y014444D01*
X030856Y014231D02*
X030856Y014658D01*
X030639Y014765D02*
X030639Y014338D01*
X030532Y014231D01*
X030212Y014231D01*
X030212Y014871D01*
X030532Y014871D01*
X030639Y014765D01*
X034831Y013231D02*
X035258Y013871D01*
X035475Y013765D02*
X035582Y013871D01*
X035796Y013871D01*
X035902Y013765D01*
X035902Y013658D01*
X035796Y013551D01*
X035902Y013444D01*
X035902Y013338D01*
X035796Y013231D01*
X035582Y013231D01*
X035475Y013338D01*
X035689Y013551D02*
X035796Y013551D01*
X036120Y013658D02*
X036333Y013871D01*
X036333Y013231D01*
X036120Y013231D02*
X036547Y013231D01*
X036764Y013231D02*
X037191Y013871D01*
X037409Y013765D02*
X037516Y013871D01*
X037729Y013871D01*
X037836Y013765D01*
X037836Y013658D01*
X037409Y013231D01*
X037836Y013231D01*
X038053Y013338D02*
X038160Y013231D01*
X038374Y013231D01*
X038480Y013338D01*
X038480Y013765D01*
X038053Y013338D01*
X038053Y013765D01*
X038160Y013871D01*
X038374Y013871D01*
X038480Y013765D01*
X038698Y013765D02*
X038805Y013871D01*
X039018Y013871D01*
X039125Y013765D01*
X038698Y013338D01*
X038805Y013231D01*
X039018Y013231D01*
X039125Y013338D01*
X039125Y013765D01*
X039342Y013871D02*
X039342Y013551D01*
X039556Y013658D01*
X039663Y013658D01*
X039769Y013551D01*
X039769Y013338D01*
X039663Y013231D01*
X039449Y013231D01*
X039342Y013338D01*
X039342Y013871D02*
X039769Y013871D01*
X040632Y013765D02*
X040632Y013338D01*
X041059Y013765D01*
X041059Y013338D01*
X040952Y013231D01*
X040738Y013231D01*
X040632Y013338D01*
X041276Y013231D02*
X041703Y013658D01*
X041703Y013765D01*
X041596Y013871D01*
X041383Y013871D01*
X041276Y013765D01*
X041059Y013765D02*
X040952Y013871D01*
X040738Y013871D01*
X040632Y013765D01*
X041921Y013658D02*
X041921Y013551D01*
X042027Y013551D01*
X042027Y013658D01*
X041921Y013658D01*
X041921Y013338D02*
X041921Y013231D01*
X042027Y013231D01*
X042027Y013338D01*
X041921Y013338D01*
X041703Y013231D02*
X041276Y013231D01*
X042243Y013231D02*
X042670Y013658D01*
X042670Y013765D01*
X042563Y013871D01*
X042350Y013871D01*
X042243Y013765D01*
X042887Y013765D02*
X042887Y013658D01*
X042994Y013551D01*
X043208Y013551D01*
X043314Y013444D01*
X043314Y013338D01*
X043208Y013231D01*
X042994Y013231D01*
X042887Y013338D01*
X042887Y013444D01*
X042994Y013551D01*
X043208Y013551D02*
X043314Y013658D01*
X043314Y013765D01*
X043208Y013871D01*
X042994Y013871D01*
X042887Y013765D01*
X043532Y013658D02*
X043532Y013551D01*
X043639Y013551D01*
X043639Y013658D01*
X043532Y013658D01*
X043532Y013338D02*
X043532Y013231D01*
X043639Y013231D01*
X043639Y013338D01*
X043532Y013338D01*
X043854Y013338D02*
X043961Y013231D01*
X044174Y013231D01*
X044281Y013338D01*
X044281Y013765D01*
X043854Y013338D01*
X043854Y013765D01*
X043961Y013871D01*
X044174Y013871D01*
X044281Y013765D01*
X044499Y013871D02*
X044926Y013871D01*
X044926Y013765D01*
X044499Y013338D01*
X044499Y013231D01*
X045143Y013231D02*
X045463Y013231D01*
X045570Y013338D01*
X045570Y013551D01*
X045463Y013658D01*
X045143Y013658D01*
X045143Y013017D01*
X042670Y013231D02*
X042243Y013231D01*
X038698Y013338D02*
X038698Y013765D01*
X015302Y016899D02*
X015302Y017219D01*
X015195Y017326D01*
X015089Y017219D01*
X015089Y016899D01*
X014875Y016899D02*
X014875Y017326D01*
X014982Y017326D01*
X015089Y017219D01*
X014658Y017219D02*
X014658Y016899D01*
X014337Y016899D01*
X014231Y017005D01*
X014337Y017112D01*
X014658Y017112D01*
X014658Y017219D02*
X014551Y017326D01*
X014337Y017326D01*
X014013Y017326D02*
X013586Y016899D01*
X014013Y016899D01*
X014013Y017326D02*
X013586Y017326D01*
X013368Y017326D02*
X013368Y016899D01*
X013048Y016899D01*
X012941Y017005D01*
X012941Y017326D01*
X012724Y017219D02*
X012617Y017326D01*
X012404Y017326D01*
X012297Y017219D01*
X012297Y017005D01*
X012404Y016899D01*
X012617Y016899D01*
X012724Y017005D01*
X012724Y017219D01*
X012079Y017219D02*
X012079Y016899D01*
X011652Y016899D02*
X011652Y017539D01*
X011435Y017539D02*
X011008Y017112D01*
X011115Y017219D02*
X011435Y016899D01*
X011008Y016899D02*
X011008Y017539D01*
X010146Y017326D02*
X010146Y017005D01*
X010039Y016899D01*
X009932Y017005D01*
X009826Y016899D01*
X009719Y017005D01*
X009719Y017326D01*
X009501Y017219D02*
X009501Y017112D01*
X009074Y017112D01*
X009074Y017005D02*
X009074Y017219D01*
X009181Y017326D01*
X009395Y017326D01*
X009501Y017219D01*
X008857Y017219D02*
X008857Y016899D01*
X009074Y017005D02*
X009181Y016899D01*
X009395Y016899D01*
X008857Y017219D02*
X008750Y017326D01*
X008536Y017326D01*
X008430Y017219D01*
X008214Y017326D02*
X008000Y017326D01*
X008107Y017432D02*
X008107Y017005D01*
X008214Y016899D01*
X008430Y016899D02*
X008430Y017539D01*
X008322Y017899D02*
X008322Y018326D01*
X008643Y018326D01*
X008749Y018219D01*
X008749Y017899D01*
X008105Y018112D02*
X007678Y018112D01*
X007678Y018005D02*
X007678Y018219D01*
X007785Y018326D01*
X007998Y018326D01*
X008105Y018219D01*
X008105Y018112D01*
X007998Y017899D02*
X007785Y017899D01*
X007678Y018005D01*
X006817Y017899D02*
X006710Y018005D01*
X006710Y018432D01*
X006604Y018326D02*
X006817Y018326D01*
X006386Y018219D02*
X006386Y017899D01*
X005959Y017899D02*
X005959Y018326D01*
X006279Y018326D01*
X006386Y018219D01*
X005742Y018219D02*
X005742Y018005D01*
X005635Y017899D01*
X005421Y017899D01*
X005315Y018005D01*
X005315Y018219D01*
X005421Y018326D01*
X005635Y018326D01*
X005742Y018219D01*
X005097Y018219D02*
X005097Y018432D01*
X004990Y018539D01*
X004670Y018539D01*
X004670Y017899D01*
X004670Y018112D02*
X004990Y018112D01*
X005097Y018219D01*
X003810Y018219D02*
X003703Y018219D01*
X003703Y018326D01*
X003810Y018326D01*
X003810Y018219D01*
X003810Y018005D02*
X003810Y017899D01*
X003703Y017899D01*
X003703Y018005D01*
X003810Y018005D01*
X003486Y017899D02*
X003486Y018219D01*
X003379Y018326D01*
X003272Y018219D01*
X003272Y017899D01*
X003059Y017899D02*
X003059Y018326D01*
X003165Y018326D01*
X003272Y018219D01*
X002841Y018219D02*
X002841Y018005D01*
X002734Y017899D01*
X002521Y017899D01*
X002414Y018005D01*
X002414Y018219D01*
X002521Y018326D01*
X002734Y018326D01*
X002841Y018219D01*
X002197Y017899D02*
X002197Y018539D01*
X001770Y018539D02*
X002197Y017899D01*
X001770Y017899D02*
X001770Y018539D01*
X001983Y017539D02*
X002197Y017326D01*
X002197Y016899D01*
X002414Y017005D02*
X002521Y016899D01*
X002841Y016899D01*
X002841Y017326D01*
X003059Y017326D02*
X003272Y017326D01*
X003165Y017432D02*
X003165Y017005D01*
X003272Y016899D01*
X003488Y017005D02*
X003488Y017219D01*
X003595Y017326D01*
X003809Y017326D01*
X003915Y017219D01*
X003915Y017112D01*
X003488Y017112D01*
X003488Y017005D02*
X003595Y016899D01*
X003809Y016899D01*
X004133Y017005D02*
X004240Y016899D01*
X004560Y016899D01*
X004560Y017326D01*
X004777Y017326D02*
X004777Y016899D01*
X004777Y017112D02*
X004991Y017326D01*
X005098Y017326D01*
X005315Y017326D02*
X005315Y017219D01*
X005421Y017219D01*
X005421Y017326D01*
X005315Y017326D01*
X005315Y017005D02*
X005315Y016899D01*
X005421Y016899D01*
X005421Y017005D01*
X005315Y017005D01*
X005770Y016539D02*
X006090Y016539D01*
X006197Y016432D01*
X006197Y016005D01*
X006090Y015899D01*
X005770Y015899D01*
X005770Y016539D01*
X006414Y016326D02*
X006521Y016326D01*
X006521Y015899D01*
X006414Y015899D02*
X006628Y015899D01*
X006844Y015899D02*
X007057Y015899D01*
X006951Y015899D02*
X006951Y016539D01*
X006844Y016539D01*
X006521Y016539D02*
X006521Y016646D01*
X006708Y016899D02*
X006708Y017539D01*
X006495Y017326D01*
X006281Y017539D01*
X006281Y016899D01*
X006926Y017005D02*
X007033Y017112D01*
X007353Y017112D01*
X007353Y017219D02*
X007353Y016899D01*
X007033Y016899D01*
X006926Y017005D01*
X007677Y017005D02*
X007784Y016899D01*
X007677Y017005D02*
X007677Y017432D01*
X007570Y017326D02*
X007784Y017326D01*
X007353Y017219D02*
X007246Y017326D01*
X007033Y017326D01*
X007274Y016539D02*
X007380Y016539D01*
X007380Y015899D01*
X007274Y015899D02*
X007487Y015899D01*
X007703Y015899D02*
X008024Y015899D01*
X008130Y016005D01*
X008024Y016112D01*
X007810Y016112D01*
X007703Y016219D01*
X007810Y016326D01*
X008130Y016326D01*
X004992Y016326D02*
X004992Y016219D01*
X004885Y016219D01*
X004885Y016326D01*
X004992Y016326D01*
X004668Y016326D02*
X004561Y016326D01*
X004348Y016112D01*
X004348Y015899D02*
X004348Y016326D01*
X004130Y016219D02*
X004130Y016112D01*
X003703Y016112D01*
X003703Y016219D02*
X003810Y016326D01*
X004024Y016326D01*
X004130Y016219D01*
X004024Y015899D02*
X003810Y015899D01*
X003703Y016005D01*
X003703Y016219D01*
X003486Y016326D02*
X003486Y015792D01*
X003379Y015685D01*
X003272Y015685D01*
X003165Y015899D02*
X003486Y015899D01*
X003165Y015899D02*
X003059Y016005D01*
X003059Y016326D01*
X002841Y016219D02*
X002841Y015899D01*
X002521Y015899D01*
X002414Y016005D01*
X002521Y016112D01*
X002841Y016112D01*
X002841Y016219D02*
X002734Y016326D01*
X002521Y016326D01*
X002197Y015899D02*
X001770Y015899D01*
X001770Y016539D01*
X001770Y016899D02*
X001770Y017326D01*
X001983Y017539D01*
X001770Y017219D02*
X002197Y017219D01*
X002414Y017326D02*
X002414Y017005D01*
X004133Y017005D02*
X004133Y017326D01*
X004885Y016005D02*
X004885Y015899D01*
X004992Y015899D01*
X004992Y016005D01*
X004885Y016005D01*
X009611Y017899D02*
X009611Y018539D01*
X009611Y018219D02*
X010038Y018219D01*
X010038Y018539D02*
X010038Y017899D01*
X011652Y017219D02*
X011759Y017326D01*
X011973Y017326D01*
X012079Y017219D01*
D12*
X005240Y019369D02*
X001240Y019369D01*
X001240Y015869D01*
D13*
X002740Y014269D02*
X003140Y013869D01*
X002740Y013469D01*
X002340Y013869D01*
X002740Y014269D01*
X002740Y013869D01*
X002740Y013269D02*
X003140Y012869D01*
X002740Y012469D01*
X002340Y012869D01*
X002740Y013269D01*
X002740Y012869D01*
X003840Y012269D02*
X003840Y011469D01*
X004640Y011469D01*
X004640Y012269D01*
X003840Y012269D01*
X004240Y012269D02*
X004240Y011869D01*
X003890Y011769D02*
X003890Y010969D01*
X003090Y010969D01*
X003090Y011769D01*
X003890Y011769D01*
X003490Y011769D02*
X003490Y011369D01*
X003840Y011269D02*
X003840Y010469D01*
X004640Y010469D01*
X004640Y011269D01*
X003840Y011269D01*
X004240Y011269D02*
X004240Y010869D01*
X004140Y010269D02*
X003340Y010269D01*
X003340Y009469D01*
X004140Y009469D01*
X004140Y010269D01*
X003740Y010269D02*
X003740Y009869D01*
X003640Y009269D02*
X002840Y009269D01*
X002840Y008469D01*
X003640Y008469D01*
X003640Y009269D01*
X003240Y009269D02*
X003240Y008869D01*
X002240Y009969D02*
X002640Y010369D01*
X002240Y010769D01*
X001840Y010369D01*
X002240Y009969D01*
X002240Y010369D02*
X002240Y010769D01*
X002240Y010969D02*
X002640Y011369D01*
X002240Y011769D01*
X001840Y011369D01*
X002240Y010969D01*
X002240Y011369D02*
X002240Y011769D01*
X005340Y012969D02*
X005340Y013769D01*
X006140Y013769D01*
X006140Y012969D01*
X005340Y012969D01*
X005740Y013369D02*
X005740Y013769D01*
X007340Y013769D02*
X007340Y012969D01*
X008140Y012969D01*
X008140Y013769D01*
X007340Y013769D01*
X007740Y013769D02*
X007740Y013369D01*
X008840Y013269D02*
X009640Y012469D01*
X008840Y012469D01*
X009640Y013269D01*
X008840Y013269D01*
X009840Y013269D02*
X010640Y012469D01*
X009840Y012469D01*
X010640Y013269D01*
X009840Y013269D01*
X010340Y013469D02*
X010340Y014269D01*
X011140Y013469D01*
X011140Y014269D01*
X010340Y013469D01*
X011340Y013469D02*
X011340Y014269D01*
X012140Y014269D01*
X012140Y013469D01*
X011340Y013469D01*
X011740Y013869D02*
X011740Y014269D01*
X013840Y013869D02*
X014240Y013469D01*
X014640Y013869D01*
X014240Y014269D01*
X013840Y013869D01*
X014240Y013869D02*
X014240Y014269D01*
X016340Y014269D02*
X016340Y013469D01*
X017140Y013469D01*
X017140Y014269D01*
X016340Y014269D01*
X016740Y014269D02*
X016740Y013869D01*
X017840Y013269D02*
X018640Y012469D01*
X017840Y012469D01*
X018640Y013269D01*
X017840Y013269D01*
X018840Y013269D02*
X019640Y012469D01*
X018840Y012469D01*
X019640Y013269D01*
X018840Y013269D01*
X020340Y012969D02*
X021140Y012969D01*
X020340Y013769D01*
X021140Y013769D01*
X020340Y012969D01*
X021840Y012519D02*
X021840Y011719D01*
X022640Y011719D01*
X022640Y012519D01*
X021840Y012519D01*
X022240Y012519D02*
X022240Y012119D01*
X022340Y011769D02*
X022340Y010969D01*
X023140Y010969D01*
X023140Y011769D01*
X022340Y011769D01*
X022140Y011769D02*
X022140Y010969D01*
X021340Y010969D01*
X021340Y011769D01*
X022140Y011769D01*
X021740Y011769D02*
X021740Y011369D01*
X022740Y011369D02*
X022740Y011769D01*
X023840Y011469D02*
X023840Y012269D01*
X024640Y012269D01*
X024640Y011469D01*
X023840Y011469D01*
X023840Y011269D02*
X023840Y010469D01*
X024640Y010469D01*
X024640Y011269D01*
X023840Y011269D01*
X024240Y011269D02*
X024240Y010869D01*
X024590Y010969D02*
X024590Y011769D01*
X025390Y011769D01*
X025390Y010969D01*
X024590Y010969D01*
X024990Y011369D02*
X024990Y011769D01*
X024240Y011869D02*
X024240Y012269D01*
X024340Y012969D02*
X025140Y012969D01*
X024340Y013769D01*
X025140Y013769D01*
X024340Y012969D01*
X025840Y012769D02*
X025840Y011969D01*
X026640Y011969D01*
X026640Y012769D01*
X025840Y012769D01*
X026240Y012769D02*
X026240Y012369D01*
X026240Y011769D02*
X026640Y011369D01*
X026240Y010969D01*
X025840Y011369D01*
X026240Y011769D01*
X026240Y011369D01*
X026240Y010769D02*
X026640Y010369D01*
X026240Y009969D01*
X025840Y010369D01*
X026240Y010769D01*
X026240Y010369D01*
X025640Y010269D02*
X025640Y009469D01*
X024840Y009469D01*
X024840Y010269D01*
X025640Y010269D01*
X025240Y010269D02*
X025240Y009869D01*
X025340Y009269D02*
X025340Y008469D01*
X026140Y008469D01*
X026140Y009269D01*
X025340Y009269D01*
X025740Y009269D02*
X025740Y008869D01*
X025140Y007749D02*
X024340Y006949D01*
X024340Y007749D01*
X025140Y006949D01*
X025140Y007749D01*
X022140Y008469D02*
X021340Y008469D01*
X021340Y009269D01*
X022140Y009269D01*
X022140Y008469D01*
X021740Y008869D02*
X021740Y009269D01*
X021640Y009469D02*
X020840Y009469D01*
X020840Y010269D01*
X021640Y010269D01*
X021640Y009469D01*
X021240Y009869D02*
X021240Y010269D01*
X019640Y009269D02*
X018840Y009269D01*
X019640Y008469D01*
X018840Y008469D01*
X019640Y009269D01*
X018640Y009269D02*
X017840Y009269D01*
X018640Y008469D01*
X017840Y008469D01*
X018640Y009269D01*
X017640Y008769D02*
X017640Y007969D01*
X016840Y007969D01*
X016840Y008769D01*
X017640Y008769D01*
X017240Y008769D02*
X017240Y008369D01*
X016140Y008769D02*
X016140Y007969D01*
X015340Y007969D01*
X015340Y008769D01*
X016140Y008769D01*
X016140Y008969D02*
X015340Y008969D01*
X015340Y009769D01*
X016140Y009769D01*
X016140Y008969D01*
X015740Y008769D02*
X015740Y008369D01*
X014890Y008519D02*
X014090Y007719D01*
X014090Y008519D02*
X014890Y007719D01*
X015340Y007769D02*
X015340Y006969D01*
X016140Y006969D01*
X016140Y007769D01*
X015340Y007769D01*
X015740Y007769D02*
X015740Y007369D01*
X016340Y006869D02*
X017140Y006869D01*
X017240Y006969D02*
X017240Y007769D01*
X016840Y007369D02*
X017640Y007369D01*
X017740Y007269D02*
X017740Y006469D01*
X017840Y006369D02*
X018640Y006369D01*
X018240Y006769D02*
X018240Y005969D01*
X017640Y006369D02*
X016840Y006369D01*
X016740Y006469D02*
X016740Y007269D01*
X017340Y006869D02*
X018140Y006869D01*
X018840Y007369D02*
X019240Y006969D01*
X019640Y007369D01*
X019240Y007769D01*
X018840Y007369D01*
X019240Y007369D02*
X019240Y007769D01*
X020840Y007369D02*
X021240Y006969D01*
X021640Y007369D01*
X021240Y007769D01*
X020840Y007369D01*
X021240Y007369D02*
X021240Y007769D01*
X017240Y006769D02*
X017240Y005969D01*
X016140Y005969D02*
X015340Y005969D01*
X015340Y006769D01*
X016140Y006769D01*
X016140Y005969D01*
X016140Y005769D02*
X016140Y004969D01*
X015340Y004969D01*
X015340Y005769D01*
X016140Y005769D01*
X015740Y005769D02*
X015740Y005369D01*
X015740Y004769D02*
X015740Y004369D01*
X015340Y004769D02*
X016140Y004769D01*
X016140Y003969D01*
X015340Y003969D01*
X015340Y004769D01*
X016840Y004769D02*
X016840Y003969D01*
X017640Y003969D01*
X017640Y004769D01*
X016840Y004769D01*
X017240Y004769D02*
X017240Y004369D01*
X017390Y003769D02*
X016590Y002969D01*
X016590Y003769D01*
X017390Y002969D01*
X017390Y003769D01*
X016140Y003769D02*
X016140Y002969D01*
X015340Y002969D01*
X015340Y003769D01*
X016140Y003769D01*
X015740Y003769D02*
X015740Y003369D01*
X013140Y003769D02*
X013140Y002969D01*
X012340Y002969D01*
X012340Y003769D01*
X013140Y003769D01*
X013140Y003969D02*
X012340Y003969D01*
X012340Y004769D01*
X013140Y004769D01*
X013140Y003969D01*
X012740Y003769D02*
X012740Y003369D01*
X011890Y002969D02*
X011890Y003769D01*
X011090Y002969D01*
X011090Y003769D01*
X011890Y002969D01*
X011640Y003969D02*
X010840Y003969D01*
X010840Y004769D01*
X011640Y004769D01*
X011640Y003969D01*
X011240Y004369D02*
X011240Y004769D01*
X012340Y004969D02*
X012340Y005769D01*
X013140Y005769D01*
X013140Y004969D01*
X012340Y004969D01*
X012740Y004769D02*
X012740Y004369D01*
X012740Y005369D02*
X012740Y005769D01*
X013140Y005969D02*
X012340Y005969D01*
X012340Y006769D01*
X013140Y006769D01*
X013140Y005969D01*
X012740Y006369D02*
X012740Y006769D01*
X013140Y006969D02*
X012340Y006969D01*
X012340Y007769D01*
X013140Y007769D01*
X013140Y006969D01*
X012740Y007369D02*
X012740Y007769D01*
X013140Y007969D02*
X012340Y007969D01*
X012340Y008769D01*
X013140Y008769D01*
X013140Y007969D01*
X012740Y008369D02*
X012740Y008769D01*
X013140Y008969D02*
X012340Y008969D01*
X012340Y009769D01*
X013140Y009769D01*
X013140Y008969D01*
X012740Y009369D02*
X012740Y009769D01*
X013140Y009969D02*
X012340Y009969D01*
X012340Y010769D01*
X013140Y010769D01*
X013140Y009969D01*
X012140Y010269D02*
X012140Y009469D01*
X011340Y009469D01*
X011340Y010269D01*
X012140Y010269D01*
X011740Y010269D02*
X011740Y009869D01*
X012740Y010369D02*
X012740Y010769D01*
X013840Y011869D02*
X014240Y011469D01*
X014640Y011869D01*
X014240Y012269D01*
X013840Y011869D01*
X014240Y011869D02*
X014240Y012269D01*
X014590Y012219D02*
X015390Y013019D01*
X014590Y013019D02*
X015390Y012219D01*
X015340Y010769D02*
X015340Y009969D01*
X016140Y009969D01*
X016140Y010769D01*
X015340Y010769D01*
X015740Y010769D02*
X015740Y010369D01*
X016340Y010269D02*
X016340Y009469D01*
X017140Y009469D01*
X017140Y010269D01*
X016340Y010269D01*
X016740Y010269D02*
X016740Y009869D01*
X015740Y009769D02*
X015740Y009369D01*
X011640Y008769D02*
X011640Y007969D01*
X010840Y007969D01*
X010840Y008769D01*
X011640Y008769D01*
X011240Y008769D02*
X011240Y008369D01*
X010640Y008469D02*
X009840Y008469D01*
X010640Y009269D01*
X009840Y009269D01*
X010640Y008469D01*
X009640Y008469D02*
X008840Y008469D01*
X009640Y009269D01*
X008840Y009269D01*
X009640Y008469D01*
X009240Y007769D02*
X009640Y007369D01*
X009240Y006969D01*
X008840Y007369D01*
X009240Y007769D01*
X009240Y007369D01*
X010340Y006869D02*
X011140Y006869D01*
X011240Y006969D02*
X011240Y007769D01*
X010840Y007369D02*
X011640Y007369D01*
X011740Y007269D02*
X011740Y006469D01*
X011640Y006369D02*
X010840Y006369D01*
X010740Y006469D02*
X010740Y007269D01*
X011340Y006869D02*
X012140Y006869D01*
X011240Y006769D02*
X011240Y005969D01*
X010640Y006369D02*
X009840Y006369D01*
X010240Y006769D02*
X010240Y005969D01*
X009640Y005369D02*
X009240Y005769D01*
X008840Y005369D01*
X009240Y004969D01*
X009640Y005369D01*
X009240Y005369D02*
X009240Y005769D01*
X007640Y005369D02*
X007240Y005769D01*
X006840Y005369D01*
X007240Y004969D01*
X007640Y005369D01*
X007240Y005369D02*
X007240Y005769D01*
X007240Y006969D02*
X007640Y007369D01*
X007240Y007769D01*
X006840Y007369D01*
X007240Y006969D01*
X007240Y007369D02*
X007240Y007769D01*
X007640Y008469D02*
X006840Y008469D01*
X006840Y009269D01*
X007640Y009269D01*
X007640Y008469D01*
X007240Y008869D02*
X007240Y009269D01*
X007340Y009469D02*
X007340Y010269D01*
X008140Y010269D01*
X008140Y009469D01*
X007340Y009469D01*
X007740Y009869D02*
X007740Y010269D01*
X004140Y007759D02*
X003340Y006959D01*
X003340Y007759D01*
X004140Y006959D01*
X004140Y007759D01*
X004140Y005789D02*
X003340Y004989D01*
X003340Y005789D01*
X004140Y004989D01*
X004140Y005789D01*
X008840Y004269D02*
X008840Y003469D01*
X009640Y003469D01*
X009640Y004269D01*
X008840Y004269D01*
X009240Y004269D02*
X009240Y003869D01*
X009240Y003269D02*
X009240Y002869D01*
X008840Y003269D02*
X009640Y003269D01*
X009640Y002469D01*
X008840Y002469D01*
X008840Y003269D01*
X006390Y003119D02*
X005990Y003519D01*
X005990Y002719D01*
X005590Y003119D01*
X006390Y003119D01*
X015740Y006369D02*
X015740Y006769D01*
X018840Y005369D02*
X019240Y004969D01*
X019640Y005369D01*
X019240Y005769D01*
X018840Y005369D01*
X019240Y005369D02*
X019240Y005769D01*
X020840Y005369D02*
X021240Y004969D01*
X021640Y005369D01*
X021240Y005769D01*
X020840Y005369D01*
X021240Y005369D02*
X021240Y005769D01*
X024340Y005779D02*
X024340Y004979D01*
X025140Y005779D01*
X025140Y004979D01*
X024340Y005779D01*
X019640Y004269D02*
X019640Y003469D01*
X018840Y003469D01*
X018840Y004269D01*
X019640Y004269D01*
X019240Y004269D02*
X019240Y003869D01*
X019240Y003269D02*
X019240Y002869D01*
X018840Y003269D02*
X019640Y003269D01*
X019640Y002469D01*
X018840Y002469D01*
X018840Y003269D01*
X022090Y003119D02*
X022490Y002719D01*
X022490Y003519D01*
X022890Y003119D01*
X022090Y003119D01*
X029382Y003401D02*
X030182Y003401D01*
X029782Y003801D02*
X029782Y003001D01*
X030182Y004301D02*
X029382Y005101D01*
X029382Y005601D02*
X029382Y006401D01*
X030182Y006401D01*
X030182Y005601D01*
X029382Y005601D01*
X029782Y006001D02*
X029782Y006401D01*
X029782Y006901D02*
X030182Y007301D01*
X029782Y007701D01*
X029382Y007301D01*
X029782Y006901D01*
X029782Y007301D02*
X029782Y007701D01*
X030182Y008201D02*
X029382Y008201D01*
X030182Y009001D01*
X029382Y009001D01*
X030182Y008201D01*
X030182Y009501D02*
X030182Y010301D01*
X029382Y009501D01*
X029382Y010301D01*
X030182Y009501D01*
X029782Y010801D02*
X029382Y011201D01*
X030182Y011201D01*
X029782Y011601D01*
X029782Y010801D01*
X026640Y013969D02*
X025840Y013969D01*
X025840Y014769D01*
X026640Y014769D01*
X026640Y013969D01*
X026240Y014369D02*
X026240Y014769D01*
X030182Y005101D02*
X029382Y004301D01*
D14*
X031302Y004547D02*
X031609Y004854D01*
X031609Y004547D01*
X031532Y004471D01*
X031378Y004471D01*
X031302Y004547D01*
X031302Y004854D01*
X031378Y004931D01*
X031532Y004931D01*
X031609Y004854D01*
X031762Y004547D02*
X031839Y004547D01*
X031839Y004471D01*
X031762Y004471D01*
X031762Y004547D01*
X031992Y004547D02*
X031992Y004471D01*
X031992Y004547D02*
X032299Y004854D01*
X032299Y004931D01*
X031992Y004931D01*
X032453Y004778D02*
X032606Y004931D01*
X032606Y004471D01*
X032453Y004471D02*
X032759Y004471D01*
X032913Y004471D02*
X033220Y004471D01*
X033373Y004471D02*
X033680Y004778D01*
X033680Y004854D01*
X033603Y004931D01*
X033450Y004931D01*
X033373Y004854D01*
X033066Y004931D02*
X033066Y004471D01*
X033373Y004471D02*
X033680Y004471D01*
X034294Y004471D02*
X034294Y004778D01*
X034371Y004778D01*
X034447Y004701D01*
X034524Y004778D01*
X034601Y004701D01*
X034601Y004471D01*
X034754Y004471D02*
X034754Y004778D01*
X034831Y004778D01*
X034908Y004701D01*
X034984Y004778D01*
X035061Y004701D01*
X035061Y004471D01*
X034908Y004471D02*
X034908Y004701D01*
X034447Y004701D02*
X034447Y004471D01*
X035675Y004471D02*
X035982Y004931D01*
X036596Y004854D02*
X036672Y004931D01*
X036826Y004931D01*
X036903Y004854D01*
X036903Y004778D01*
X036596Y004471D01*
X036903Y004471D01*
X037056Y004547D02*
X037133Y004471D01*
X037286Y004471D01*
X037363Y004547D01*
X037363Y004624D01*
X037286Y004701D01*
X037133Y004701D01*
X037056Y004778D01*
X037056Y004854D01*
X037133Y004931D01*
X037286Y004931D01*
X037363Y004854D01*
X037363Y004778D01*
X037286Y004701D01*
X037133Y004701D02*
X037056Y004624D01*
X037056Y004547D01*
X037516Y004547D02*
X037516Y004471D01*
X037593Y004471D01*
X037593Y004547D01*
X037516Y004547D01*
X037747Y004547D02*
X038054Y004854D01*
X038054Y004547D01*
X037977Y004471D01*
X037823Y004471D01*
X037747Y004547D01*
X037747Y004854D01*
X037823Y004931D01*
X037977Y004931D01*
X038054Y004854D01*
X038207Y004854D02*
X038284Y004931D01*
X038437Y004931D01*
X038514Y004854D01*
X038207Y004547D01*
X038284Y004471D01*
X038437Y004471D01*
X038514Y004547D01*
X038514Y004854D01*
X038667Y004854D02*
X038744Y004931D01*
X038897Y004931D01*
X038974Y004854D01*
X038667Y004547D01*
X038744Y004471D01*
X038897Y004471D01*
X038974Y004547D01*
X038974Y004854D01*
X038667Y004854D02*
X038667Y004547D01*
X038207Y004547D02*
X038207Y004854D01*
X039588Y004778D02*
X039588Y004471D01*
X039741Y004471D02*
X039741Y004701D01*
X039818Y004778D01*
X039895Y004701D01*
X039895Y004471D01*
X040048Y004471D02*
X040202Y004471D01*
X040125Y004471D02*
X040125Y004778D01*
X040048Y004778D01*
X040125Y004931D02*
X040125Y005008D01*
X040355Y004931D02*
X040432Y004931D01*
X040432Y004471D01*
X040355Y004471D02*
X040509Y004471D01*
X039741Y004701D02*
X039665Y004778D01*
X039588Y004778D01*
X039588Y005771D02*
X039588Y006078D01*
X039665Y006078D01*
X039741Y006001D01*
X039818Y006078D01*
X039895Y006001D01*
X039895Y005771D01*
X040048Y005771D02*
X040202Y005771D01*
X040125Y005771D02*
X040125Y006078D01*
X040048Y006078D01*
X040125Y006231D02*
X040125Y006308D01*
X040355Y006231D02*
X040432Y006231D01*
X040432Y005771D01*
X040355Y005771D02*
X040509Y005771D01*
X039741Y005771D02*
X039741Y006001D01*
X038974Y005847D02*
X038897Y005771D01*
X038744Y005771D01*
X038667Y005847D01*
X038974Y006154D01*
X038974Y005847D01*
X038667Y005847D02*
X038667Y006154D01*
X038744Y006231D01*
X038897Y006231D01*
X038974Y006154D01*
X038514Y006154D02*
X038207Y005847D01*
X038284Y005771D01*
X038437Y005771D01*
X038514Y005847D01*
X038514Y006154D01*
X038437Y006231D01*
X038284Y006231D01*
X038207Y006154D01*
X038207Y005847D01*
X038054Y005847D02*
X037977Y005771D01*
X037823Y005771D01*
X037747Y005847D01*
X038054Y006154D01*
X038054Y005847D01*
X037747Y005847D02*
X037747Y006154D01*
X037823Y006231D01*
X037977Y006231D01*
X038054Y006154D01*
X037363Y006154D02*
X037286Y006231D01*
X037133Y006231D01*
X037056Y006154D01*
X036903Y006154D02*
X036903Y006078D01*
X036826Y006001D01*
X036903Y005924D01*
X036903Y005847D01*
X036826Y005771D01*
X036672Y005771D01*
X036596Y005847D01*
X036749Y006001D02*
X036826Y006001D01*
X036903Y006154D02*
X036826Y006231D01*
X036672Y006231D01*
X036596Y006154D01*
X035982Y006231D02*
X035675Y005771D01*
X035061Y005771D02*
X035061Y006001D01*
X034984Y006078D01*
X034908Y006001D01*
X034908Y005771D01*
X034754Y005771D02*
X034754Y006078D01*
X034831Y006078D01*
X034908Y006001D01*
X034601Y006001D02*
X034601Y005771D01*
X034447Y005771D02*
X034447Y006001D01*
X034524Y006078D01*
X034601Y006001D01*
X034447Y006001D02*
X034371Y006078D01*
X034294Y006078D01*
X034294Y005771D01*
X033680Y005847D02*
X033680Y005924D01*
X033603Y006001D01*
X033450Y006001D01*
X033373Y006078D01*
X033373Y006154D01*
X033450Y006231D01*
X033603Y006231D01*
X033680Y006154D01*
X033680Y006078D01*
X033603Y006001D01*
X033450Y006001D02*
X033373Y005924D01*
X033373Y005847D01*
X033450Y005771D01*
X033603Y005771D01*
X033680Y005847D01*
X033220Y005771D02*
X032913Y005771D01*
X033220Y006078D01*
X033220Y006154D01*
X033143Y006231D01*
X032990Y006231D01*
X032913Y006154D01*
X032606Y006231D02*
X032606Y005771D01*
X032453Y005771D02*
X032759Y005771D01*
X032299Y005847D02*
X032299Y005924D01*
X032222Y006001D01*
X032069Y006001D01*
X031992Y006078D01*
X031992Y006154D01*
X032069Y006231D01*
X032222Y006231D01*
X032299Y006154D01*
X032299Y006078D01*
X032222Y006001D01*
X032069Y006001D02*
X031992Y005924D01*
X031992Y005847D01*
X032069Y005771D01*
X032222Y005771D01*
X032299Y005847D01*
X031839Y005847D02*
X031839Y005771D01*
X031762Y005771D01*
X031762Y005847D01*
X031839Y005847D01*
X031609Y005847D02*
X031532Y005771D01*
X031378Y005771D01*
X031302Y005847D01*
X031609Y006154D01*
X031609Y005847D01*
X031302Y005847D02*
X031302Y006154D01*
X031378Y006231D01*
X031532Y006231D01*
X031609Y006154D01*
X032453Y006078D02*
X032606Y006231D01*
X032606Y007071D02*
X032606Y007531D01*
X032453Y007378D01*
X032299Y007454D02*
X031992Y007147D01*
X032069Y007071D01*
X032222Y007071D01*
X032299Y007147D01*
X032299Y007454D01*
X032222Y007531D01*
X032069Y007531D01*
X031992Y007454D01*
X031992Y007147D01*
X031839Y007147D02*
X031839Y007071D01*
X031762Y007071D01*
X031762Y007147D01*
X031839Y007147D01*
X031609Y007071D02*
X031302Y007071D01*
X031455Y007071D02*
X031455Y007531D01*
X031302Y007378D01*
X032453Y007071D02*
X032759Y007071D01*
X032913Y007147D02*
X032990Y007071D01*
X033143Y007071D01*
X033220Y007147D01*
X033220Y007224D01*
X033143Y007301D01*
X032913Y007301D01*
X032913Y007147D01*
X032913Y007301D02*
X033066Y007454D01*
X033220Y007531D01*
X033373Y007454D02*
X033450Y007531D01*
X033603Y007531D01*
X033680Y007454D01*
X033373Y007147D01*
X033450Y007071D01*
X033603Y007071D01*
X033680Y007147D01*
X033680Y007454D01*
X033373Y007454D02*
X033373Y007147D01*
X034294Y007071D02*
X034294Y007378D01*
X034371Y007378D01*
X034447Y007301D01*
X034524Y007378D01*
X034601Y007301D01*
X034601Y007071D01*
X034754Y007071D02*
X034754Y007378D01*
X034831Y007378D01*
X034908Y007301D01*
X034984Y007378D01*
X035061Y007301D01*
X035061Y007071D01*
X034908Y007071D02*
X034908Y007301D01*
X034447Y007301D02*
X034447Y007071D01*
X035675Y007071D02*
X035982Y007531D01*
X036596Y007301D02*
X036903Y007301D01*
X037056Y007454D02*
X037056Y007147D01*
X037363Y007454D01*
X037363Y007147D01*
X037286Y007071D01*
X037133Y007071D01*
X037056Y007147D01*
X036826Y007071D02*
X036826Y007531D01*
X036596Y007301D01*
X037056Y007454D02*
X037133Y007531D01*
X037286Y007531D01*
X037363Y007454D01*
X037747Y007454D02*
X037823Y007531D01*
X037977Y007531D01*
X038054Y007454D01*
X037747Y007147D01*
X037823Y007071D01*
X037977Y007071D01*
X038054Y007147D01*
X038054Y007454D01*
X038207Y007454D02*
X038284Y007531D01*
X038437Y007531D01*
X038514Y007454D01*
X038207Y007147D01*
X038284Y007071D01*
X038437Y007071D01*
X038514Y007147D01*
X038514Y007454D01*
X038667Y007454D02*
X038744Y007531D01*
X038897Y007531D01*
X038974Y007454D01*
X038667Y007147D01*
X038744Y007071D01*
X038897Y007071D01*
X038974Y007147D01*
X038974Y007454D01*
X038667Y007454D02*
X038667Y007147D01*
X038207Y007147D02*
X038207Y007454D01*
X037747Y007454D02*
X037747Y007147D01*
X037593Y007147D02*
X037593Y007071D01*
X037516Y007071D01*
X037516Y007147D01*
X037593Y007147D01*
X039588Y007071D02*
X039588Y007378D01*
X039665Y007378D01*
X039741Y007301D01*
X039818Y007378D01*
X039895Y007301D01*
X039895Y007071D01*
X040048Y007071D02*
X040202Y007071D01*
X040125Y007071D02*
X040125Y007378D01*
X040048Y007378D01*
X040125Y007531D02*
X040125Y007608D01*
X040355Y007531D02*
X040432Y007531D01*
X040432Y007071D01*
X040355Y007071D02*
X040509Y007071D01*
X039741Y007071D02*
X039741Y007301D01*
X039741Y008371D02*
X039741Y008601D01*
X039818Y008678D01*
X039895Y008601D01*
X039895Y008371D01*
X040048Y008371D02*
X040202Y008371D01*
X040125Y008371D02*
X040125Y008678D01*
X040048Y008678D01*
X040125Y008831D02*
X040125Y008908D01*
X040355Y008831D02*
X040432Y008831D01*
X040432Y008371D01*
X040355Y008371D02*
X040509Y008371D01*
X039741Y008601D02*
X039665Y008678D01*
X039588Y008678D01*
X039588Y008371D01*
X038974Y008447D02*
X038897Y008371D01*
X038744Y008371D01*
X038667Y008447D01*
X038974Y008754D01*
X038974Y008447D01*
X038667Y008447D02*
X038667Y008754D01*
X038744Y008831D01*
X038897Y008831D01*
X038974Y008754D01*
X038514Y008754D02*
X038514Y008447D01*
X038437Y008371D01*
X038284Y008371D01*
X038207Y008447D01*
X038514Y008754D01*
X038437Y008831D01*
X038284Y008831D01*
X038207Y008754D01*
X038207Y008447D01*
X038054Y008447D02*
X037977Y008371D01*
X037823Y008371D01*
X037747Y008447D01*
X038054Y008754D01*
X038054Y008447D01*
X037747Y008447D02*
X037747Y008754D01*
X037823Y008831D01*
X037977Y008831D01*
X038054Y008754D01*
X037593Y008447D02*
X037593Y008371D01*
X037516Y008371D01*
X037516Y008447D01*
X037593Y008447D01*
X037363Y008601D02*
X037056Y008601D01*
X037286Y008831D01*
X037286Y008371D01*
X036903Y008601D02*
X036596Y008601D01*
X036826Y008831D01*
X036826Y008371D01*
X035982Y008831D02*
X035675Y008371D01*
X035061Y008371D02*
X035061Y008601D01*
X034984Y008678D01*
X034908Y008601D01*
X034908Y008371D01*
X034754Y008371D02*
X034754Y008678D01*
X034831Y008678D01*
X034908Y008601D01*
X034601Y008601D02*
X034601Y008371D01*
X034447Y008371D02*
X034447Y008601D01*
X034524Y008678D01*
X034601Y008601D01*
X034447Y008601D02*
X034371Y008678D01*
X034294Y008678D01*
X034294Y008371D01*
X033680Y008447D02*
X033680Y008524D01*
X033603Y008601D01*
X033373Y008601D01*
X033373Y008447D01*
X033450Y008371D01*
X033603Y008371D01*
X033680Y008447D01*
X033527Y008754D02*
X033373Y008601D01*
X033220Y008754D02*
X032913Y008447D01*
X032913Y008371D01*
X032759Y008371D02*
X032453Y008371D01*
X032606Y008371D02*
X032606Y008831D01*
X032453Y008678D01*
X032146Y008831D02*
X032146Y008371D01*
X032299Y008371D02*
X031992Y008371D01*
X031839Y008371D02*
X031762Y008371D01*
X031762Y008447D01*
X031839Y008447D01*
X031839Y008371D01*
X031609Y008371D02*
X031302Y008371D01*
X031455Y008371D02*
X031455Y008831D01*
X031302Y008678D01*
X031992Y008678D02*
X032146Y008831D01*
X032913Y008831D02*
X033220Y008831D01*
X033220Y008754D01*
X033527Y008754D02*
X033680Y008831D01*
X033603Y009671D02*
X033450Y009671D01*
X033373Y009747D01*
X033373Y009824D01*
X033450Y009901D01*
X033603Y009901D01*
X033680Y009824D01*
X033680Y009747D01*
X033603Y009671D01*
X033603Y009901D02*
X033680Y009978D01*
X033680Y010054D01*
X033603Y010131D01*
X033450Y010131D01*
X033373Y010054D01*
X033373Y009978D01*
X033450Y009901D01*
X033220Y010054D02*
X032913Y009747D01*
X032990Y009671D01*
X033143Y009671D01*
X033220Y009747D01*
X033220Y010054D01*
X033143Y010131D01*
X032990Y010131D01*
X032913Y010054D01*
X032913Y009747D01*
X032759Y009671D02*
X032453Y009671D01*
X032759Y009978D01*
X032759Y010054D01*
X032683Y010131D01*
X032529Y010131D01*
X032453Y010054D01*
X032299Y010054D02*
X032299Y009978D01*
X032222Y009901D01*
X032299Y009824D01*
X032299Y009747D01*
X032222Y009671D01*
X032069Y009671D01*
X031992Y009747D01*
X031839Y009747D02*
X031839Y009671D01*
X031762Y009671D01*
X031762Y009747D01*
X031839Y009747D01*
X031609Y009671D02*
X031302Y009671D01*
X031455Y009671D02*
X031455Y010131D01*
X031302Y009978D01*
X031992Y010054D02*
X032069Y010131D01*
X032222Y010131D01*
X032299Y010054D01*
X032222Y009901D02*
X032146Y009901D01*
X034294Y009978D02*
X034294Y009671D01*
X034447Y009671D02*
X034447Y009901D01*
X034524Y009978D01*
X034601Y009901D01*
X034601Y009671D01*
X034754Y009671D02*
X034754Y009978D01*
X034831Y009978D01*
X034908Y009901D01*
X034984Y009978D01*
X035061Y009901D01*
X035061Y009671D01*
X034908Y009671D02*
X034908Y009901D01*
X034447Y009901D02*
X034371Y009978D01*
X034294Y009978D01*
X035675Y009671D02*
X035982Y010131D01*
X036596Y010131D02*
X036596Y009901D01*
X036749Y009978D01*
X036826Y009978D01*
X036903Y009901D01*
X036903Y009747D01*
X036826Y009671D01*
X036672Y009671D01*
X036596Y009747D01*
X037056Y009671D02*
X037363Y009978D01*
X037363Y010054D01*
X037286Y010131D01*
X037133Y010131D01*
X037056Y010054D01*
X036903Y010131D02*
X036596Y010131D01*
X037056Y009671D02*
X037363Y009671D01*
X037516Y009671D02*
X037593Y009671D01*
X037593Y009747D01*
X037516Y009747D01*
X037516Y009671D01*
X037747Y009747D02*
X038054Y010054D01*
X038054Y009747D01*
X037977Y009671D01*
X037823Y009671D01*
X037747Y009747D01*
X037747Y010054D01*
X037823Y010131D01*
X037977Y010131D01*
X038054Y010054D01*
X038207Y010054D02*
X038284Y010131D01*
X038437Y010131D01*
X038514Y010054D01*
X038207Y009747D01*
X038284Y009671D01*
X038437Y009671D01*
X038514Y009747D01*
X038514Y010054D01*
X038667Y010054D02*
X038744Y010131D01*
X038897Y010131D01*
X038974Y010054D01*
X038667Y009747D01*
X038744Y009671D01*
X038897Y009671D01*
X038974Y009747D01*
X038974Y010054D01*
X038667Y010054D02*
X038667Y009747D01*
X038207Y009747D02*
X038207Y010054D01*
X039588Y009978D02*
X039588Y009671D01*
X039741Y009671D02*
X039741Y009901D01*
X039818Y009978D01*
X039895Y009901D01*
X039895Y009671D01*
X040048Y009671D02*
X040202Y009671D01*
X040125Y009671D02*
X040125Y009978D01*
X040048Y009978D01*
X040125Y010131D02*
X040125Y010208D01*
X040355Y010131D02*
X040432Y010131D01*
X040432Y009671D01*
X040355Y009671D02*
X040509Y009671D01*
X039741Y009901D02*
X039665Y009978D01*
X039588Y009978D01*
X039358Y010971D02*
X039204Y010971D01*
X039128Y011047D01*
X039435Y011354D01*
X039435Y011047D01*
X039358Y010971D01*
X039128Y011047D02*
X039128Y011354D01*
X039204Y011431D01*
X039358Y011431D01*
X039435Y011354D01*
X038974Y011354D02*
X038667Y011047D01*
X038744Y010971D01*
X038897Y010971D01*
X038974Y011047D01*
X038974Y011354D01*
X038897Y011431D01*
X038744Y011431D01*
X038667Y011354D01*
X038667Y011047D01*
X038514Y011047D02*
X038437Y010971D01*
X038284Y010971D01*
X038207Y011047D01*
X038514Y011354D01*
X038514Y011047D01*
X038207Y011047D02*
X038207Y011354D01*
X038284Y011431D01*
X038437Y011431D01*
X038514Y011354D01*
X037823Y011431D02*
X037516Y011431D01*
X037516Y011201D01*
X037670Y011278D01*
X037747Y011278D01*
X037823Y011201D01*
X037823Y011047D01*
X037747Y010971D01*
X037593Y010971D01*
X037516Y011047D01*
X037363Y010971D02*
X037056Y010971D01*
X037363Y011278D01*
X037363Y011354D01*
X037286Y011431D01*
X037133Y011431D01*
X037056Y011354D01*
X036749Y011431D02*
X036596Y011278D01*
X036749Y011431D02*
X036749Y010971D01*
X036596Y010971D02*
X036903Y010971D01*
X035982Y011431D02*
X035675Y010971D01*
X035061Y010971D02*
X035061Y011201D01*
X034984Y011278D01*
X034908Y011201D01*
X034908Y010971D01*
X034754Y010971D02*
X034754Y011278D01*
X034831Y011278D01*
X034908Y011201D01*
X034601Y011201D02*
X034601Y010971D01*
X034447Y010971D02*
X034447Y011201D01*
X034524Y011278D01*
X034601Y011201D01*
X034447Y011201D02*
X034371Y011278D01*
X034294Y011278D01*
X034294Y010971D01*
X033680Y011047D02*
X033603Y010971D01*
X033450Y010971D01*
X033373Y011047D01*
X033680Y011354D01*
X033680Y011047D01*
X033373Y011047D02*
X033373Y011354D01*
X033450Y011431D01*
X033603Y011431D01*
X033680Y011354D01*
X033220Y011431D02*
X032913Y011431D01*
X032913Y011201D01*
X033066Y011278D01*
X033143Y011278D01*
X033220Y011201D01*
X033220Y011047D01*
X033143Y010971D01*
X032990Y010971D01*
X032913Y011047D01*
X032759Y011354D02*
X032453Y011047D01*
X032453Y010971D01*
X032299Y010971D02*
X031992Y010971D01*
X031839Y010971D02*
X031762Y010971D01*
X031762Y011047D01*
X031839Y011047D01*
X031839Y010971D01*
X031609Y011047D02*
X031532Y010971D01*
X031378Y010971D01*
X031302Y011047D01*
X031455Y011201D02*
X031532Y011201D01*
X031609Y011124D01*
X031609Y011047D01*
X031532Y011201D02*
X031609Y011278D01*
X031609Y011354D01*
X031532Y011431D01*
X031378Y011431D01*
X031302Y011354D01*
X031992Y011278D02*
X032146Y011431D01*
X032146Y010971D01*
X032453Y011431D02*
X032759Y011431D01*
X032759Y011354D01*
X037977Y011047D02*
X038054Y011047D01*
X038054Y010971D01*
X037977Y010971D01*
X037977Y011047D01*
X040048Y010971D02*
X040048Y011278D01*
X040125Y011278D01*
X040202Y011201D01*
X040279Y011278D01*
X040355Y011201D01*
X040355Y010971D01*
X040202Y010971D02*
X040202Y011201D01*
X040509Y011278D02*
X040585Y011278D01*
X040585Y010971D01*
X040509Y010971D02*
X040662Y010971D01*
X040816Y010971D02*
X040969Y010971D01*
X040892Y010971D02*
X040892Y011431D01*
X040816Y011431D01*
X040585Y011431D02*
X040585Y011508D01*
X037363Y006154D02*
X037363Y006078D01*
X037056Y005771D01*
X037363Y005771D01*
X037516Y005771D02*
X037593Y005771D01*
X037593Y005847D01*
X037516Y005847D01*
X037516Y005771D01*
X033066Y004931D02*
X032913Y004778D01*
X032990Y003631D02*
X033143Y003631D01*
X033220Y003554D01*
X033220Y003478D01*
X033143Y003401D01*
X032990Y003401D01*
X032913Y003478D01*
X032913Y003554D01*
X032990Y003631D01*
X032990Y003401D02*
X032913Y003324D01*
X032913Y003247D01*
X032990Y003171D01*
X033143Y003171D01*
X033220Y003247D01*
X033220Y003324D01*
X033143Y003401D01*
X033373Y003478D02*
X033373Y003554D01*
X033450Y003631D01*
X033603Y003631D01*
X033680Y003554D01*
X033680Y003478D01*
X033603Y003401D01*
X033450Y003401D01*
X033373Y003478D01*
X033450Y003401D02*
X033373Y003324D01*
X033373Y003247D01*
X033450Y003171D01*
X033603Y003171D01*
X033680Y003247D01*
X033680Y003324D01*
X033603Y003401D01*
X032759Y003401D02*
X032759Y003247D01*
X032683Y003171D01*
X032529Y003171D01*
X032453Y003247D01*
X032299Y003247D02*
X032222Y003171D01*
X032069Y003171D01*
X031992Y003247D01*
X031839Y003247D02*
X031839Y003171D01*
X031762Y003171D01*
X031762Y003247D01*
X031839Y003247D01*
X031992Y003401D02*
X032146Y003478D01*
X032222Y003478D01*
X032299Y003401D01*
X032299Y003247D01*
X032453Y003401D02*
X032606Y003478D01*
X032683Y003478D01*
X032759Y003401D01*
X032759Y003631D02*
X032453Y003631D01*
X032453Y003401D01*
X032299Y003631D02*
X031992Y003631D01*
X031992Y003401D01*
X031609Y003554D02*
X031609Y003247D01*
X031532Y003171D01*
X031378Y003171D01*
X031302Y003247D01*
X031609Y003554D01*
X031532Y003631D01*
X031378Y003631D01*
X031302Y003554D01*
X031302Y003247D01*
X034294Y003171D02*
X034294Y003478D01*
X034371Y003478D01*
X034447Y003401D01*
X034524Y003478D01*
X034601Y003401D01*
X034601Y003171D01*
X034754Y003171D02*
X034754Y003478D01*
X034831Y003478D01*
X034908Y003401D01*
X034984Y003478D01*
X035061Y003401D01*
X035061Y003171D01*
X034908Y003171D02*
X034908Y003401D01*
X034447Y003401D02*
X034447Y003171D01*
X035675Y003171D02*
X035982Y003631D01*
X036596Y003554D02*
X036672Y003631D01*
X036826Y003631D01*
X036903Y003554D01*
X036903Y003478D01*
X036596Y003171D01*
X036903Y003171D01*
X037056Y003171D02*
X037363Y003478D01*
X037363Y003554D01*
X037286Y003631D01*
X037133Y003631D01*
X037056Y003554D01*
X037747Y003554D02*
X037823Y003631D01*
X037977Y003631D01*
X038054Y003554D01*
X037747Y003247D01*
X037823Y003171D01*
X037977Y003171D01*
X038054Y003247D01*
X038054Y003554D01*
X038207Y003554D02*
X038284Y003631D01*
X038437Y003631D01*
X038514Y003554D01*
X038207Y003247D01*
X038284Y003171D01*
X038437Y003171D01*
X038514Y003247D01*
X038514Y003554D01*
X038667Y003554D02*
X038744Y003631D01*
X038897Y003631D01*
X038974Y003554D01*
X038667Y003247D01*
X038744Y003171D01*
X038897Y003171D01*
X038974Y003247D01*
X038974Y003554D01*
X038667Y003554D02*
X038667Y003247D01*
X038207Y003247D02*
X038207Y003554D01*
X037747Y003554D02*
X037747Y003247D01*
X037593Y003247D02*
X037593Y003171D01*
X037516Y003171D01*
X037516Y003247D01*
X037593Y003247D01*
X037363Y003171D02*
X037056Y003171D01*
X039588Y003171D02*
X039588Y003478D01*
X039665Y003478D01*
X039741Y003401D01*
X039818Y003478D01*
X039895Y003401D01*
X039895Y003171D01*
X040048Y003171D02*
X040202Y003171D01*
X040125Y003171D02*
X040125Y003478D01*
X040048Y003478D01*
X040125Y003631D02*
X040125Y003708D01*
X040355Y003631D02*
X040432Y003631D01*
X040432Y003171D01*
X040355Y003171D02*
X040509Y003171D01*
X039741Y003171D02*
X039741Y003401D01*
D15*
X042382Y002101D02*
X028782Y002101D01*
X028782Y015201D01*
D16*
X026240Y014769D02*
X026240Y014369D01*
X026240Y014769D02*
X026640Y014769D01*
X026640Y013969D01*
X025840Y013969D01*
X025840Y014769D01*
X026240Y014769D01*
X025140Y013769D02*
X024340Y012969D01*
X024340Y013769D02*
X025140Y013769D01*
X024340Y013769D02*
X025140Y012969D01*
X024340Y012969D01*
X026240Y012769D02*
X026240Y012369D01*
X026240Y012769D02*
X026640Y012769D01*
X026640Y011969D01*
X025840Y011969D01*
X025840Y012769D01*
X026240Y012769D01*
X024240Y012269D02*
X024240Y011869D01*
X024240Y012269D02*
X024640Y012269D01*
X024640Y011469D01*
X023840Y011469D01*
X023840Y012269D01*
X024240Y012269D01*
X024990Y011769D02*
X024990Y011369D01*
X024990Y011769D02*
X025390Y011769D01*
X025390Y010969D01*
X024590Y010969D01*
X024590Y011769D01*
X024990Y011769D01*
X026240Y011769D02*
X026240Y011369D01*
X026240Y011769D02*
X026640Y011369D01*
X026240Y010969D01*
X025840Y011369D01*
X026240Y011769D01*
X024240Y011269D02*
X024240Y010869D01*
X024240Y011269D02*
X024640Y011269D01*
X024640Y010469D01*
X023840Y010469D01*
X023840Y011269D01*
X024240Y011269D01*
X022740Y011369D02*
X022740Y011769D01*
X023140Y011769D01*
X023140Y010969D01*
X022340Y010969D01*
X022340Y011769D01*
X022740Y011769D01*
X022240Y012119D02*
X022240Y012519D01*
X022640Y012519D01*
X022640Y011719D01*
X021840Y011719D01*
X021840Y012519D01*
X022240Y012519D01*
X021140Y013769D02*
X020340Y012969D01*
X020340Y013769D02*
X021140Y013769D01*
X020340Y013769D02*
X021140Y012969D01*
X020340Y012969D01*
X019640Y013269D02*
X018840Y012469D01*
X018840Y013269D02*
X019640Y013269D01*
X018840Y013269D02*
X019640Y012469D01*
X018840Y012469D01*
X018640Y013269D02*
X017840Y012469D01*
X017840Y013269D02*
X018640Y013269D01*
X017840Y013269D02*
X018640Y012469D01*
X017840Y012469D01*
X015390Y012219D02*
X014590Y013019D01*
X014590Y012219D02*
X015390Y013019D01*
X014240Y013869D02*
X014240Y014269D01*
X014640Y013869D01*
X014240Y013469D01*
X013840Y013869D01*
X014240Y014269D01*
X011740Y014269D02*
X011740Y013869D01*
X011740Y014269D02*
X012140Y014269D01*
X012140Y013469D01*
X011340Y013469D01*
X011340Y014269D01*
X011740Y014269D01*
X011140Y014269D02*
X010340Y013469D01*
X011140Y013469D02*
X011140Y014269D01*
X011140Y013469D02*
X010340Y014269D01*
X010340Y013469D01*
X010640Y013269D02*
X009840Y012469D01*
X009840Y013269D02*
X010640Y013269D01*
X009840Y013269D02*
X010640Y012469D01*
X009840Y012469D01*
X009640Y013269D02*
X008840Y012469D01*
X008840Y013269D02*
X009640Y013269D01*
X008840Y013269D02*
X009640Y012469D01*
X008840Y012469D01*
X007740Y013369D02*
X007740Y013769D01*
X008140Y013769D01*
X008140Y012969D01*
X007340Y012969D01*
X007340Y013769D01*
X007740Y013769D01*
X005740Y013769D02*
X005740Y013369D01*
X005740Y013769D02*
X006140Y013769D01*
X006140Y012969D01*
X005340Y012969D01*
X005340Y013769D01*
X005740Y013769D01*
X002740Y013869D02*
X002740Y014269D01*
X003140Y013869D01*
X002740Y013469D01*
X002340Y013869D01*
X002740Y014269D01*
X002740Y013269D02*
X002740Y012869D01*
X002740Y013269D02*
X003140Y012869D01*
X002740Y012469D01*
X002340Y012869D01*
X002740Y013269D01*
X004240Y012269D02*
X004240Y011869D01*
X004240Y012269D02*
X004640Y012269D01*
X004640Y011469D01*
X003840Y011469D01*
X003840Y012269D01*
X004240Y012269D01*
X003490Y011769D02*
X003490Y011369D01*
X003490Y011769D02*
X003890Y011769D01*
X003890Y010969D01*
X003090Y010969D01*
X003090Y011769D01*
X003490Y011769D01*
X002240Y011769D02*
X002240Y011369D01*
X002240Y011769D02*
X002640Y011369D01*
X002240Y010969D01*
X001840Y011369D01*
X002240Y011769D01*
X004240Y011269D02*
X004240Y010869D01*
X004240Y011269D02*
X004640Y011269D01*
X004640Y010469D01*
X003840Y010469D01*
X003840Y011269D01*
X004240Y011269D01*
X002240Y010769D02*
X002240Y010369D01*
X002240Y010769D02*
X002640Y010369D01*
X002240Y009969D01*
X001840Y010369D01*
X002240Y010769D01*
X003740Y010269D02*
X003740Y009869D01*
X003740Y010269D02*
X004140Y010269D01*
X004140Y009469D01*
X003340Y009469D01*
X003340Y010269D01*
X003740Y010269D01*
X003240Y009269D02*
X003240Y008869D01*
X003240Y009269D02*
X003640Y009269D01*
X003640Y008469D01*
X002840Y008469D01*
X002840Y009269D01*
X003240Y009269D01*
X007240Y009269D02*
X007240Y008869D01*
X007240Y009269D02*
X007640Y009269D01*
X007640Y008469D01*
X006840Y008469D01*
X006840Y009269D01*
X007240Y009269D01*
X007740Y009869D02*
X007740Y010269D01*
X008140Y010269D01*
X008140Y009469D01*
X007340Y009469D01*
X007340Y010269D01*
X007740Y010269D01*
X008840Y008469D02*
X009640Y009269D01*
X008840Y009269D01*
X009640Y008469D01*
X008840Y008469D01*
X009840Y008469D02*
X010640Y009269D01*
X009840Y009269D01*
X010640Y008469D01*
X009840Y008469D01*
X011240Y008369D02*
X011240Y008769D01*
X011640Y008769D01*
X011640Y007969D01*
X010840Y007969D01*
X010840Y008769D01*
X011240Y008769D01*
X012740Y008769D02*
X012740Y008369D01*
X012740Y008769D02*
X013140Y008769D01*
X013140Y007969D01*
X012340Y007969D01*
X012340Y008769D01*
X012740Y008769D01*
X012740Y009369D02*
X012740Y009769D01*
X013140Y009769D01*
X013140Y008969D01*
X012340Y008969D01*
X012340Y009769D01*
X012740Y009769D01*
X011740Y009869D02*
X011740Y010269D01*
X012140Y010269D01*
X012140Y009469D01*
X011340Y009469D01*
X011340Y010269D01*
X011740Y010269D01*
X012740Y010369D02*
X012740Y010769D01*
X013140Y010769D01*
X013140Y009969D01*
X012340Y009969D01*
X012340Y010769D01*
X012740Y010769D01*
X014240Y011869D02*
X014240Y012269D01*
X014640Y011869D01*
X014240Y011469D01*
X013840Y011869D01*
X014240Y012269D01*
X016740Y013869D02*
X016740Y014269D01*
X017140Y014269D01*
X017140Y013469D01*
X016340Y013469D01*
X016340Y014269D01*
X016740Y014269D01*
X021740Y011769D02*
X021740Y011369D01*
X021740Y011769D02*
X022140Y011769D01*
X022140Y010969D01*
X021340Y010969D01*
X021340Y011769D01*
X021740Y011769D01*
X026240Y010769D02*
X026240Y010369D01*
X026240Y010769D02*
X026640Y010369D01*
X026240Y009969D01*
X025840Y010369D01*
X026240Y010769D01*
X025240Y010269D02*
X025240Y009869D01*
X025240Y010269D02*
X025640Y010269D01*
X025640Y009469D01*
X024840Y009469D01*
X024840Y010269D01*
X025240Y010269D01*
X025740Y009269D02*
X025740Y008869D01*
X025740Y009269D02*
X026140Y009269D01*
X026140Y008469D01*
X025340Y008469D01*
X025340Y009269D01*
X025740Y009269D01*
X021740Y009269D02*
X021740Y008869D01*
X021740Y009269D02*
X022140Y009269D01*
X022140Y008469D01*
X021340Y008469D01*
X021340Y009269D01*
X021740Y009269D01*
X021240Y009869D02*
X021240Y010269D01*
X021640Y010269D01*
X021640Y009469D01*
X020840Y009469D01*
X020840Y010269D01*
X021240Y010269D01*
X019640Y009269D02*
X018840Y008469D01*
X018840Y009269D02*
X019640Y009269D01*
X018840Y009269D02*
X019640Y008469D01*
X018840Y008469D01*
X018640Y009269D02*
X017840Y008469D01*
X017840Y009269D02*
X018640Y009269D01*
X017840Y009269D02*
X018640Y008469D01*
X017840Y008469D01*
X017240Y008369D02*
X017240Y008769D01*
X017640Y008769D01*
X017640Y007969D01*
X016840Y007969D01*
X016840Y008769D01*
X017240Y008769D01*
X015740Y008769D02*
X015740Y008369D01*
X015740Y008769D02*
X016140Y008769D01*
X016140Y007969D01*
X015340Y007969D01*
X015340Y008769D01*
X015740Y008769D01*
X015740Y009369D02*
X015740Y009769D01*
X016140Y009769D01*
X016140Y008969D01*
X015340Y008969D01*
X015340Y009769D01*
X015740Y009769D01*
X016740Y009869D02*
X016740Y010269D01*
X017140Y010269D01*
X017140Y009469D01*
X016340Y009469D01*
X016340Y010269D01*
X016740Y010269D01*
X015740Y010369D02*
X015740Y010769D01*
X016140Y010769D01*
X016140Y009969D01*
X015340Y009969D01*
X015340Y010769D01*
X015740Y010769D01*
X014090Y008519D02*
X014890Y007719D01*
X014090Y007719D02*
X014890Y008519D01*
X015740Y007769D02*
X015740Y007369D01*
X015740Y007769D02*
X016140Y007769D01*
X016140Y006969D01*
X015340Y006969D01*
X015340Y007769D01*
X015740Y007769D01*
X016840Y007369D02*
X017640Y007369D01*
X017240Y006969D02*
X017240Y007769D01*
X017340Y006869D02*
X018140Y006869D01*
X017740Y006469D02*
X017740Y007269D01*
X017140Y006869D02*
X016340Y006869D01*
X016740Y006469D02*
X016740Y007269D01*
X016840Y006369D02*
X017640Y006369D01*
X017240Y005969D02*
X017240Y006769D01*
X017840Y006369D02*
X018640Y006369D01*
X018240Y005969D02*
X018240Y006769D01*
X019240Y007369D02*
X019240Y007769D01*
X019640Y007369D01*
X019240Y006969D01*
X018840Y007369D01*
X019240Y007769D01*
X021240Y007769D02*
X021240Y007369D01*
X021240Y007769D02*
X021640Y007369D01*
X021240Y006969D01*
X020840Y007369D01*
X021240Y007769D01*
X024340Y006949D02*
X025140Y007749D01*
X025140Y006949D01*
X024340Y007749D01*
X024340Y006949D01*
X025140Y005779D02*
X024340Y004979D01*
X025140Y004979D02*
X025140Y005779D01*
X025140Y004979D02*
X024340Y005779D01*
X024340Y004979D01*
X021240Y005369D02*
X021240Y005769D01*
X021640Y005369D01*
X021240Y004969D01*
X020840Y005369D01*
X021240Y005769D01*
X019240Y005769D02*
X019240Y005369D01*
X019240Y005769D02*
X019640Y005369D01*
X019240Y004969D01*
X018840Y005369D01*
X019240Y005769D01*
X017240Y004769D02*
X017240Y004369D01*
X017240Y004769D02*
X017640Y004769D01*
X017640Y003969D01*
X016840Y003969D01*
X016840Y004769D01*
X017240Y004769D01*
X015740Y004769D02*
X015740Y004369D01*
X015740Y004769D02*
X016140Y004769D01*
X016140Y003969D01*
X015340Y003969D01*
X015340Y004769D01*
X015740Y004769D01*
X015740Y005369D02*
X015740Y005769D01*
X016140Y005769D01*
X016140Y004969D01*
X015340Y004969D01*
X015340Y005769D01*
X015740Y005769D01*
X015740Y006369D02*
X015740Y006769D01*
X016140Y006769D01*
X016140Y005969D01*
X015340Y005969D01*
X015340Y006769D01*
X015740Y006769D01*
X012740Y006769D02*
X012740Y006369D01*
X012740Y006769D02*
X013140Y006769D01*
X013140Y005969D01*
X012340Y005969D01*
X012340Y006769D01*
X012740Y006769D01*
X012140Y006869D02*
X011340Y006869D01*
X011740Y006469D02*
X011740Y007269D01*
X011640Y007369D02*
X010840Y007369D01*
X011240Y006969D02*
X011240Y007769D01*
X012740Y007769D02*
X012740Y007369D01*
X012740Y007769D02*
X013140Y007769D01*
X013140Y006969D01*
X012340Y006969D01*
X012340Y007769D01*
X012740Y007769D01*
X011140Y006869D02*
X010340Y006869D01*
X010740Y006469D02*
X010740Y007269D01*
X009240Y007369D02*
X009240Y007769D01*
X009640Y007369D01*
X009240Y006969D01*
X008840Y007369D01*
X009240Y007769D01*
X007240Y007769D02*
X007240Y007369D01*
X007240Y007769D02*
X007640Y007369D01*
X007240Y006969D01*
X006840Y007369D01*
X007240Y007769D01*
X009840Y006369D02*
X010640Y006369D01*
X010240Y005969D02*
X010240Y006769D01*
X010840Y006369D02*
X011640Y006369D01*
X011240Y005969D02*
X011240Y006769D01*
X012740Y005769D02*
X012740Y005369D01*
X012740Y005769D02*
X013140Y005769D01*
X013140Y004969D01*
X012340Y004969D01*
X012340Y005769D01*
X012740Y005769D01*
X012740Y004769D02*
X012740Y004369D01*
X012740Y004769D02*
X013140Y004769D01*
X013140Y003969D01*
X012340Y003969D01*
X012340Y004769D01*
X012740Y004769D01*
X011240Y004769D02*
X011240Y004369D01*
X011240Y004769D02*
X011640Y004769D01*
X011640Y003969D01*
X010840Y003969D01*
X010840Y004769D01*
X011240Y004769D01*
X009240Y005369D02*
X009240Y005769D01*
X009640Y005369D01*
X009240Y004969D01*
X008840Y005369D01*
X009240Y005769D01*
X007240Y005769D02*
X007240Y005369D01*
X007240Y005769D02*
X007640Y005369D01*
X007240Y004969D01*
X006840Y005369D01*
X007240Y005769D01*
X004140Y005789D02*
X003340Y004989D01*
X004140Y004989D02*
X004140Y005789D01*
X004140Y004989D02*
X003340Y005789D01*
X003340Y004989D01*
X005590Y003119D02*
X006390Y003119D01*
X005990Y003519D01*
X005990Y002719D01*
X005590Y003119D01*
X009240Y003269D02*
X009240Y002869D01*
X009240Y003269D02*
X009640Y003269D01*
X009640Y002469D01*
X008840Y002469D01*
X008840Y003269D01*
X009240Y003269D01*
X009240Y003869D02*
X009240Y004269D01*
X009640Y004269D01*
X009640Y003469D01*
X008840Y003469D01*
X008840Y004269D01*
X009240Y004269D01*
X011090Y002969D02*
X011890Y003769D01*
X011890Y002969D01*
X011090Y003769D01*
X011090Y002969D01*
X012740Y003369D02*
X012740Y003769D01*
X013140Y003769D01*
X013140Y002969D01*
X012340Y002969D01*
X012340Y003769D01*
X012740Y003769D01*
X015740Y003769D02*
X015740Y003369D01*
X015740Y003769D02*
X016140Y003769D01*
X016140Y002969D01*
X015340Y002969D01*
X015340Y003769D01*
X015740Y003769D01*
X016590Y002969D02*
X017390Y003769D01*
X017390Y002969D01*
X016590Y003769D01*
X016590Y002969D01*
X019240Y002869D02*
X019240Y003269D01*
X019640Y003269D01*
X019640Y002469D01*
X018840Y002469D01*
X018840Y003269D01*
X019240Y003269D01*
X019240Y003869D02*
X019240Y004269D01*
X019640Y004269D01*
X019640Y003469D01*
X018840Y003469D01*
X018840Y004269D01*
X019240Y004269D01*
X022090Y003119D02*
X022890Y003119D01*
X022490Y003519D01*
X022490Y002719D01*
X022090Y003119D01*
X004140Y007759D02*
X003340Y006959D01*
X004140Y006959D02*
X004140Y007759D01*
X004140Y006959D02*
X003340Y007759D01*
X003340Y006959D01*
M02*
