%
M48
M72
T01C0.0236
T02C0.0240
T03C0.0280
T04C0.0320
T05C0.0360
T06C0.0400
T07C0.0440
T08C0.0520
T09C0.0900
T10C0.1250
%
T01
X34953Y6853
X43703Y9853
T02
X50203Y26353
X46703Y19853
X40203Y24353
X37203Y24853
X30953Y21853
X33703Y17728
X34203Y16103
X24953Y14603
X25203Y8353
X26953Y3853
X39203Y6353
T03
X26203Y22353
X27203Y22353
X26828Y23353
X26703Y24353
X27203Y24853
X27703Y25353
X28203Y25853
X28703Y26353
X28203Y27353
X30078Y25853
X29578Y25353
X30578Y24853
X30203Y23853
X29203Y24353
X31078Y22853
X32203Y22853
X32078Y23853
X32578Y24353
X33203Y24853
X34203Y25853
X34703Y25353
X33078Y26353
X39703Y20353
X38703Y19603
X40703Y19603
X41703Y19853
X42703Y19853
X43703Y19853
X44703Y19853
X45703Y19853
X46953Y17853
X49703Y17353
X43703Y14353
X41703Y15353
X36703Y14853
X36203Y17853
X32703Y15353
X31703Y14353
X30703Y16853
X34703Y10853
X40203Y10853
X45703Y11853
X46953Y13103
X45203Y7353
X44203Y3353
X41703Y2853
X37703Y2853
X27703Y5853
T04
X43453Y30603
X43453Y28603
X36203Y26353
X35203Y28603
X35203Y30603
X26953Y30603
X26953Y28603
X23703Y24853
X22703Y24853
X21703Y24853
X20703Y24853
X18703Y25353
X16703Y25353
X17003Y22603
X18403Y22603
X20703Y21853
X21703Y21853
X22703Y21853
X23703Y21853
X23703Y20853
X23703Y19853
X23703Y18853
X23703Y17853
X23453Y16228
X21453Y16228
X20703Y17853
X20703Y18853
X20703Y19853
X20703Y20853
X25203Y22353
X25203Y24353
X18703Y28603
X18703Y30603
X16703Y17353
X21453Y13228
X23453Y13228
X21703Y11853
X22703Y10353
X23703Y10353
X25703Y10353
X26703Y10353
X28453Y9853
X30453Y9853
X30453Y11353
X28453Y11353
X28203Y12853
X27203Y12853
X29203Y12853
X30203Y12853
X31203Y12853
X32203Y12853
X33203Y12853
X34203Y12853
X35203Y12853
X36203Y12853
X37203Y12853
X38203Y12853
X39203Y12853
X40203Y12853
X41203Y12853
X42203Y12853
X43203Y12853
X44203Y12853
X45203Y12853
X46203Y12853
X48078Y12103
X46203Y10353
X47203Y8853
X48203Y8853
X46203Y7353
X43703Y7353
X42203Y7853
X40703Y7853
X39703Y7853
X38703Y7853
X37703Y7853
X36703Y7853
X35703Y7853
X34703Y7853
X33703Y7853
X32703Y7853
X31703Y7853
X30703Y7853
X29703Y7853
X28703Y7853
X27703Y7853
X25203Y7353
X25203Y6353
X26203Y5603
X25203Y4603
X25203Y3603
X24453Y2603
X25703Y2103
X27703Y2103
X29253Y3353
X29703Y4853
X28703Y4853
X27703Y4853
X30703Y4853
X31703Y4853
X32703Y4853
X33703Y4853
X34703Y4853
X35703Y4853
X36703Y4853
X37703Y4853
X38703Y4853
X39703Y4853
X40703Y4853
X42203Y4853
X43703Y5353
X39203Y3353
X39203Y2353
X36203Y2353
X36203Y3353
X34953Y3478
X32953Y3478
X31153Y3353
X32953Y1978
X34953Y1978
X34703Y9228
X32703Y9228
X32253Y11353
X34153Y11353
X36203Y11478
X38203Y11478
X40703Y10103
X41203Y11853
X50203Y7103
X51453Y8853
X53203Y7103
X51078Y12103
X50703Y15353
X51703Y16603
X52703Y16603
X50703Y18353
X50203Y21103
X50203Y22103
X53203Y22103
X53203Y21103
X46203Y18853
X45203Y18853
X44203Y18853
X43203Y18853
X42203Y18853
X41203Y18853
X40203Y18853
X39203Y18853
X38203Y18853
X37203Y18853
X36203Y18853
X35203Y18853
X34203Y18853
X33203Y18853
X32203Y18853
X31203Y18853
X30203Y18853
X29203Y18853
X28203Y18853
X27203Y18853
X35703Y20353
X36203Y21353
X37703Y20353
X38703Y20353
X40703Y20353
X21703Y8853
X22203Y7353
X22203Y6353
X22203Y5603
X21007Y6095
X20219Y6095
X20219Y5111
X21007Y5111
X22203Y4603
X22203Y3603
X20453Y2603
T05
X41703Y9853
X42703Y9853
X49078Y13103
X48078Y14103
X48203Y15853
X49203Y15853
X50078Y14103
X49703Y20103
X50703Y20103
X26203Y20353
X25203Y20353
X50453Y5103
X51453Y5103
T06
X48203Y5103
X47203Y5103
X46203Y5103
X45703Y2853
X45703Y1853
X46703Y1853
X46703Y2853
X47703Y2853
X47703Y1853
X48703Y1853
X49703Y1853
X49703Y2853
X48703Y2853
X50423Y7963
X52983Y7963
X52983Y9743
X50423Y9743
X50423Y23463
X52983Y23463
X52983Y25243
X50423Y25243
X49578Y29103
X48578Y29103
X47578Y29103
X46578Y29103
X45578Y29103
X45578Y30103
X46578Y30103
X47578Y30103
X48578Y30103
X49578Y30103
X41328Y30103
X40328Y30103
X39328Y30103
X38328Y30103
X37328Y30103
X37328Y29103
X38328Y29103
X39328Y29103
X40328Y29103
X41328Y29103
X33078Y29103
X32078Y29103
X31078Y29103
X30078Y29103
X29078Y29103
X29078Y30103
X30078Y30103
X31078Y30103
X32078Y30103
X33078Y30103
X24828Y30103
X23828Y30103
X22828Y30103
X21828Y30103
X20828Y30103
X20828Y29103
X21828Y29103
X22828Y29103
X23828Y29103
X24828Y29103
X16703Y14603
X17703Y14603
X18703Y14603
T07
X35953Y9353
X39953Y9353
T08
X16703Y27603
T09
X19251Y7993
X19251Y3213
T10
X16703Y1853
X18235Y10603
X20597Y10603
X19436Y12532
X16703Y29853
X52703Y29853
X52703Y1853
M30
